<svg xmlns="http://www.w3.org/2000/svg" viewBox="0 0 386.75 430.5"><defs><style>.cls-1,.cls-14{fill:none;stroke-linecap:round;stroke-linejoin:round;}.cls-1{stroke:#231f20;stroke-width:5.09px;}.cls-2,.cls-9{fill:#231f20;}.cls-3{fill:#895d35;}.cls-4{fill:#24755b;}.cls-5{fill:#2f773a;}.cls-6{fill:#52473e;}.cls-7{fill:#8bb2a6;}.cls-8{fill:#043f3a;}.cls-9{font-size:26px;font-family:MavenPro-Regular, Maven Pro;}.cls-10{letter-spacing:-0.03em;}.cls-11{letter-spacing:-0.04em;}.cls-12,.cls-13{fill:#ede7cf;}.cls-13{fill-rule:evenodd;}.cls-14{stroke:#ede7cf;stroke-width:3px;}</style></defs><title>benifits-good-earth-bag</title><g id="Layer_2" data-name="Layer 2"><g id="Layer_1-2" data-name="Layer 1"><path class="cls-1" d="M23.25,246.45a175.36,175.36,0,0,1-1.66-51.6"/><polygon class="cls-2" points="28.32 201.59 21.32 197.35 13.41 199.44 23.42 182.84 28.32 201.59"/><path class="cls-1" d="M134.66,377.82A172.42,172.42,0,0,1,91.6,355"/><polygon class="cls-2" points="100.78 352.41 93.64 356.42 91.57 364.34 82.04 347.45 100.78 352.41"/><path class="cls-1" d="M304.71,347.45a172.53,172.53,0,0,1-39.82,25.16"/><polygon class="cls-2" points="267.2 363.38 267.18 371.56 273.05 377.27 253.66 377.25 267.2 363.38"/><path class="cls-1" d="M363.49,183.71a175,175,0,0,1,1.77,50.72"/><polygon class="cls-2" points="358.5 227.72 365.52 231.93 373.43 229.8 363.5 246.44 358.5 227.72"/><path class="cls-1" d="M254.61,53.28A172.41,172.41,0,0,1,294.14,74.5"/><polygon class="cls-2" points="284.99 77.08 292.11 73.03 294.13 65.1 303.76 81.92 284.99 77.08"/><path class="cls-1" d="M83,81.93a173.09,173.09,0,0,1,39.39-24.61"/><polygon class="cls-2" points="120.04 66.55 120.09 58.36 114.24 52.63 133.63 52.72 120.04 66.55"/><circle class="cls-3" cx="335.85" cy="132.83" r="50.9"/><circle class="cls-4" cx="335.85" cy="297.34" r="50.9"/><circle class="cls-5" cx="193.37" cy="379.6" r="50.9"/><circle class="cls-6" cx="50.93" cy="297.34" r="50.9"/><circle class="cls-7" cx="50.9" cy="132.83" r="50.9"/><circle class="cls-8" cx="193.69" cy="50.9" r="50.9"/><text class="cls-9" transform="translate(132.37 181.18)"><tspan class="cls-10">r</tspan><tspan x="8.89" y="0">enewable</tspan><tspan x="15.61" y="31.2">c</tspan><tspan class="cls-11" x="28.41" y="31.2">y</tspan><tspan x="41.54" y="31.2">cle of</tspan><tspan x="-22.9" y="62.4">biodegradable</tspan><tspan x="33.22" y="93.6">bags</tspan></text><path class="cls-12" d="M319.09,292.22c-2.13,2.18-5.87,4-7.41,4.67l.38.52c1.4.24,3.88.44,5.67-.58,5.31-3.05,9.35-15.11,9.35-15.11s-5,7.45-8,10.5Z"/><path class="cls-12" d="M378,308.25V294.88c0-1.48-10.12-10.49-12.56-12.64a4.37,4.37,0,0,0-3.55-1.81H351.73a4.39,4.39,0,0,0-4.39,4.39v23.43h-4.08v-37h-46.5V314h9.49a.64.64,0,0,0,.08-.14,10.4,10.4,0,0,1,17.33,0c0,.05,0,.1.08.14h21.14v-.14H353l.09-.13a10.46,10.46,0,0,1,2.55-2.59,10.29,10.29,0,0,1,6-1.93,10.42,10.42,0,0,1,4.5,1,10.56,10.56,0,0,1,4.08,3.5,1.48,1.48,0,0,0,.08.13H378v-5.58Zm-63-6.95a12.63,12.63,0,0,1-3.86-1.83,26.83,26.83,0,0,1-6.34,5.11l-.23-5a16,16,0,0,0,4.36-2.59c-1.3-2.76-2.38-8.8,3.24-12,4-2.25,8.38-2.53,11.42-4.37a23.74,23.74,0,0,0,7.29-6.92s.34,10.3-4.15,19.05c-3.21,6.24-8.17,9.53-11.73,8.49Zm10.67.7a12.69,12.69,0,0,1-8.25,1.31c3.21-.47,6.94-3.58,9.53-8.61.27-.55.54-1.1.78-1.65a9.94,9.94,0,0,0,1.57.32,17.85,17.85,0,0,0,7.46-.82A32.94,32.94,0,0,1,325.6,302Zm33.26-13.2v10.59h-6.79V285.82h6.79v3Zm13,10.59h-8.58v-12.1l3,2.76,5.59,5.15v4.19Z"/><path class="cls-12" d="M367.07,315.2a8.07,8.07,0,0,0-2-1.36,7.79,7.79,0,0,0-3.38-.76,7.92,7.92,0,0,0-4.75,1.58q-.34.25-.66.54l-.15.14a8,8,0,1,0,11.13,0c-.05,0-.11-.09-.15-.14Z"/><path class="cls-12" d="M320.56,315.34a8,8,0,0,0-11.13,0l-.13.13a8,8,0,1,0,11.4,0l-.14-.13Z"/><path class="cls-12" d="M371.52,126.52,338.71,93.7a3.2,3.2,0,0,0-4.51,0l-32.81,32.82a3.18,3.18,0,1,0,4.5,4.5l30.56-30.56L367,131a3.19,3.19,0,1,0,4.51-4.5Z"/><polygon class="cls-12" points="308.73 134.74 308.73 166.2 325.5 166.2 325.5 134.72 346.88 134.72 346.88 166.2 364.17 166.2 364.17 134.74 336.45 107.01 308.73 134.74 308.73 134.74"/><path class="cls-13" d="M75.71,291.74c6.82-12.48,8.79-23.21,4.1-27-4.43-3.6-13.25-.17-23.1,7.94-5.5-8.91-11.55-14-16.16-12.53S33.9,268.84,34.29,279c-14-.83-24.62,2.32-26.3,8-1.78,6.06,6.67,14.19,20.33,20.77C22.46,319,20.7,328.46,25,332s13.38.24,23.31-7.6c5.45,8.7,11.4,13.6,16,12.19,4.4-1.37,6.53-8.35,6.27-18.08,11.17.32,19.22-2.1,20.68-7.07,1.57-5.37-4.67-13.09-15.53-19.68Zm.88-23.08c3,2.45,1.08,11-4.21,21.17a90.07,90.07,0,0,0-9.24-4.3,90.4,90.4,0,0,0-4.74-10c8.18-6.31,15.34-9.2,18.19-6.88ZM42.25,291.45c2-2.42,4-4.68,6-6.8,1.89.42,3.79.9,5.72,1.47,2.49.73,4.89,1.56,7.18,2.46.81,2,1.57,4.14,2.25,6.34s1.28,4.45,1.76,6.61c-1.42,2-2.94,4-4.55,6s-3.36,4-5,5.76c-3.28-.6-6.67-1.38-10.09-2.36A88,88,0,0,1,42,301.57c-.78-2.51-1.42-5-1.95-7.37.7-.92,1.41-1.84,2.16-2.75Zm-2.84-.68a74.42,74.42,0,0,1-1-7.69c2.15.21,4.36.51,6.63.93-1.26,1.41-2.51,2.85-3.75,4.38-.65.79-1.28,1.59-1.89,2.38Zm19.77-6.71c-1.5-.52-3-1-4.6-1.47-1.1-.33-2.21-.62-3.3-.9,1.49-1.43,3-2.78,4.46-4a70.24,70.24,0,0,1,3.44,6.39ZM42.45,266.24c2.79-.87,7.2,2.56,11.53,8.76-2,1.79-4,3.75-6.06,5.89a93.3,93.3,0,0,0-9.64-1.58c0-7.2,1.45-12.23,4.17-13.07Zm-3.79,36.38c.74,2.39,1.55,4.7,2.4,6.92-3.12-1.05-6-2.21-8.74-3.43a92.56,92.56,0,0,1,5-8.12c.41,1.53.84,3.07,1.33,4.63ZM12.88,288.45c1.12-3.85,9.94-6.23,21.68-5.66a91.07,91.07,0,0,0,1.94,11.85A117.6,117.6,0,0,0,29.86,305c-11.49-5.62-18.21-12.3-17-16.5ZM28.25,328c-3-2.41-1.92-9.82,2.6-19.08a113.72,113.72,0,0,0,11.79,4.46,90.17,90.17,0,0,0,4,8.11c-8.25,6.5-15.36,9-18.39,6.51Zm19.08-13.25c1.83.5,3.66,1,5.45,1.36q-1.59,1.53-3.15,2.89c-.78-1.32-1.54-2.76-2.3-4.25Zm15.06,15.67c-2.75.86-6.89-2.53-11-8.62q2.61-2.26,5.25-4.9a93.07,93.07,0,0,0,10.23,1.36c-.26,6.71-1.91,11.36-4.5,12.16Zm-2.85-16.52c1.68-1.82,3.35-3.72,5-5.72.53-.65,1-1.3,1.55-2a67.69,67.69,0,0,1,.82,8.42c-2.33-.14-4.8-.38-7.36-.74Zm6.64-19.86c-.41-1.34-.85-2.65-1.31-3.94,2,.92,4,1.89,5.77,2.88q-1.48,2.63-3.24,5.29c-.38-1.39-.78-2.81-1.22-4.23ZM86.35,310c-.93,3.17-7.19,4.87-16,4.8A89.44,89.44,0,0,0,68.54,303c2-2.71,3.76-5.41,5.34-8.05C82.53,300.4,87.4,306.4,86.35,310Z"/><path class="cls-13" d="M53.87,304.59a5.6,5.6,0,1,0-7-3.68,5.6,5.6,0,0,0,7,3.68Z"/><path class="cls-12" d="M183.45,390.61l1.81,0c4.09-.06,7.29-.2,9.58-.4-1.23-.78-2.61-1.6-3.92-2.38a91.11,91.11,0,0,1-8.17-5.23c-3.28-2.46-4.92-5.11-5.52-7.37-3.8,2.32-7,5.69-10.12,10.26a31.12,31.12,0,0,0,16,5.16Z"/><path class="cls-12" d="M192.13,368.41c0,1,0,1.9-.06,2.68a44.32,44.32,0,0,0-4.57.47l.08,0c1,.54,2.57,1.39,4.44,2.39l.08,0c3.2,1.7,7.21,3.78,10.45,5.31a50.5,50.5,0,0,0,6.59,2.13c1.91.53,4,1.13,6.26,1.86-3.8-6.81-10.36-12-19.22-12.29a1.09,1.09,0,0,0-.07-.3,16.32,16.32,0,0,1-.47-2.53c1.67-.12,6.43-.69,9.13-3.41,4.12-4.14,4-11,4-11s-6.94,1.06-9.9,3.35a11,11,0,0,0-3.68,6.76c-.31-3.29-.56-7-.72-9.2.78-1.12,3.06-4.79,3-8.69-.13-5.33-7.39-10.67-7.39-10.67s-2.59,6-2.78,9.78c-.18,3.23,2.61,6.61,5.58,8.94-.26,2.84-.44,6.33-.57,9.58a15.92,15.92,0,0,0-2.09-5.67c-3.22-4.88-9.51-5.13-9.51-5.13s-.57,5.83,1.07,9.18,5,5.94,10.38,6.38Z"/><path class="cls-12" d="M227.68,392.64a39.61,39.61,0,0,0-10.52-5.55c-6.33-2.33-12.57-3.49-15.89-5-5.24-2.47-12.31-6.28-15.14-7.81l-.48-.27-.16-.1-.28-.18-.18-.11-.24-.15-.17-.12-.21-.14-.17-.12-.2-.14-.16-.12-.17-.12-.27-.2-.12-.09,0,0-.29-.2-.05,0a1.64,1.64,0,0,1-.22-.14l-.09-.05-.17-.1-.1-.06-.16-.08-.1,0-.15-.06-.1,0-.15,0-.1,0-.17,0h-.34a1.31,1.31,0,0,0-.27.06c-.62.18-1,1-.84,2.18.22,1.7,1.49,4.13,4.56,6.44,5.2,3.9,13.52,7.81,16,10.62s-12.87,2.7-17,2.81h-1.07l-.3,0h-.31l-.32,0-.33,0-.34,0-.34,0-.35,0-.36-.05-.36-.05-.37-.06-.38-.06-.38-.07-.39-.08-.4-.08-.39-.09-.41-.09-.41-.1-.41-.1-.42-.12-.42-.11-.42-.13-.43-.13-.43-.14-.44-.14-.43-.15-.44-.16-.44-.17-.44-.17-.44-.18-.45-.19-.44-.2-.45-.2-.44-.21-.45-.22-.44-.22-.46-.24-.43-.24-.45-.26-.43-.25-.45-.27-.43-.27-.37-.24-.08-.06-.42-.28-.44-.31-.42-.3-.44-.34-.4-.31c-.15-.11-.29-.24-.44-.36l-.39-.32-.43-.39-.38-.33-.43-.41-.36-.35-.43-.45-.34-.35-.44-.49-.3-.35c-.16-.18-.31-.38-.47-.57s-.17-.2-.25-.31c-.23-.3-.46-.6-.69-.92s-.27-.37-.41-.55a1.83,1.83,0,0,0-.13-.16l-.31-.38-.13-.15-.42-.48h0l-.43-.45-.13-.12-.32-.31-.13-.12-.42-.37h0l-.43-.34-.13-.1-.31-.23a.57.57,0,0,0-.13-.08l-.4-.27h0l-.4-.24-.12-.06a1.59,1.59,0,0,0-.29-.15l-.11-.06-.35-.16h0l-.35-.13-.1,0-.24-.07-.1,0-.28-.05h0l-.28,0h-.33l-.2.05h0a.77.77,0,0,0-.18.1l-.05,0-.1.1,0,0a1.4,1.4,0,0,0-.1.16h0a1.08,1.08,0,0,0-.05.21.13.13,0,0,0,0,.06,1.15,1.15,0,0,0,0,.19v.07c0,.09,0,.19,0,.29.56,2.67,8.28,19.14,17.7,25.74.13.1.27.19.42.29l.13.09.34.23.18.12.35.23.21.13.35.23.24.15.38.23.27.17.38.24.3.17.4.24.31.18.42.25.34.19.43.25.35.19.47.25.35.2.48.25.38.2.5.26.38.19.52.26.38.19.56.27.38.18.6.28.35.16.84.37.13.06,1,.42.35.14.65.27.42.16.6.22.45.17.58.2.47.17.57.18.48.15.57.18.49.14.56.16.5.13.56.14.5.12.56.12.49.1.57.11.49.08.56.09.49.06.57.07.47.05.58,0,.46,0,.59,0h.43l.65,0h.36l1-.07.94-.1.25,0,1-.12h0l1.08-.14.31,0,1-.14.23,0,1.07-.15,2.84-.41.22,0,2.74-.37.25,0,1.34-.17h0l1.38-.16.28,0L213,411h.11l1.35-.11.29,0,1.2-.07h.15l1.28-.06h.3l1.11,0H220l.47,0h.43l.45,0,.43,0,.42,0,.43,0,.39.05.43.06.38.06.4.07.4.09.34.08c.24.05,1.52.2,1.74.3,1,.49,6.41-7.22,6.41-7.22s3.25-5-5.39-11.69Z"/><path class="cls-12" d="M60.24,122.22a.81.81,0,0,1,1.61-.23v0h0c.13.81.24,1.61.33,2.38s.17,1.47.25,2.25c.09,1.08.15,2.09.15,3a14.59,14.59,0,0,1,2.12-2,27.4,27.4,0,0,1,8.76-4.16A.81.81,0,0,1,74,125a26,26,0,0,0-8.25,3.91,14.1,14.1,0,0,0-3.49,4c-.22.7-.56,1.14-1,1.26a.82.82,0,0,1-1-.62.78.78,0,0,1,.1-.6c.24-.43.49-.84.74-1.24a38.65,38.65,0,0,0-.24-4.94c-.06-.65-.14-1.39-.24-2.21s-.21-1.54-.32-2.33h0v0Z"/><path class="cls-12" d="M54.91,134.14a.82.82,0,0,1,.69-.92.81.81,0,0,1,.92.68v0h0c.12.81.23,1.6.32,2.37s.18,1.48.25,2.26c.09,1.08.15,2.09.15,3a14.07,14.07,0,0,1,2.12-2,27.6,27.6,0,0,1,8.76-4.17.81.81,0,0,1,.49,1.55,26,26,0,0,0-8.25,3.9,14.28,14.28,0,0,0-3.49,4c-.22.7-.56,1.14-1,1.25a.81.81,0,0,1-1-.61.78.78,0,0,1,.1-.6c.24-.43.49-.85.74-1.25a38.51,38.51,0,0,0-.24-4.93c-.06-.65-.14-1.39-.24-2.21s-.2-1.55-.32-2.33h0v0Z"/><path class="cls-12" d="M35.15,139.51a.81.81,0,0,1,1.6.25v0h0c-.12.78-.23,1.56-.32,2.32s-.19,1.56-.25,2.21a40.63,40.63,0,0,0-.24,4.94c.26.41.51.83.76,1.26h0a.85.85,0,0,1,.09.59.82.82,0,0,1-1,.6c-.47-.1-.8-.55-1-1.25a14.22,14.22,0,0,0-3.48-4,26,26,0,0,0-8.25-3.91.81.81,0,1,1,.49-1.54,27.65,27.65,0,0,1,8.75,4.16,14.59,14.59,0,0,1,2.12,2c0-.91.06-1.92.16-3,.07-.79.15-1.54.24-2.26s.21-1.57.33-2.38h0v0Z"/><path class="cls-12" d="M39.08,162.15a1.63,1.63,0,1,1-.48,3.22h0a.8.8,0,0,1-.15,0,32,32,0,0,1-4.45-1,33.57,33.57,0,0,1-4.26-1.62c-7-3.23-12.29-8.61-14.52-14-2.66-6.39-2-13.21-1.35-20.34a83.73,83.73,0,0,0,.54-12.3,1.63,1.63,0,0,1,1.53-1.71,1.76,1.76,0,0,1,.8.16c12.82,5.74,20.66,10.16,25.11,16.4s5.42,14.24,4.3,26.88a1.63,1.63,0,0,1-3.24-.28c1-11.84.28-19.14-3.7-24.72-3.78-5.28-10.56-9.28-21.49-14.27,0,3.44-.31,6.82-.62,10.13-.63,6.72-1.23,13.14,1.12,18.8,1.94,4.69,6.62,9.41,12.88,12.29a30.11,30.11,0,0,0,3.84,1.47,29.38,29.38,0,0,0,4,.93h.13Z"/><path class="cls-12" d="M46.24,143.12a1.62,1.62,0,0,1-3.24.08v-.06a58.12,58.12,0,0,1,.9-12.29,44.34,44.34,0,0,1,3.15-10.22c7.1-15.79,22.18-22.51,35.44-23.52a1.62,1.62,0,0,1,1.74,1.49,1.6,1.6,0,0,1,0,.49,77.07,77.07,0,0,0-.34,15.85c.38,7.53.75,14.86-2.37,23.27-3.43,9.23-11.79,13.9-19.81,18.38a87.79,87.79,0,0,0-8.8,5.37A1.62,1.62,0,1,1,51,159.34a89,89,0,0,1,9.15-5.59c7.5-4.19,15.33-8.57,18.34-16.68,2.88-7.77,2.53-14.77,2.17-22a86.47,86.47,0,0,1,.12-14.54C69,102,56.18,108.25,50,122a41.44,41.44,0,0,0-2.92,9.48,55.3,55.3,0,0,0-.85,11.63v.05Z"/><path class="cls-12" d="M51.23,174.81a1.62,1.62,0,1,1-3.17-.65v0h0c.65-3.13,1.14-6.4,1.63-9.69.9-6,1.8-12.11,3.84-18h0a.3.3,0,0,1,0-.1c.37-1.08.83-2.31,1.37-3.64s1.24-3,2-4.57c3.82-8.43,9.78-19.08,16-23.74A1.63,1.63,0,0,1,74.88,117c-5.73,4.25-11.36,14.39-15,22.46-.73,1.61-1.37,3.11-1.91,4.45s-1,2.52-1.32,3.49a.56.56,0,0,1,0,.12h0c-1.92,5.52-2.81,11.47-3.68,17.37-.5,3.3-1,6.59-1.67,9.88h0v0Z"/><path class="cls-12" d="M41.9,173.71a1.63,1.63,0,0,1-3.23.36,125.25,125.25,0,0,0-3.86-20.58c-2-6.91-4.94-13.33-9.24-17.27a1.62,1.62,0,1,1,2.2-2.39c4.79,4.39,8,11.34,10.16,18.75a128,128,0,0,1,4,21.13Z"/><path class="cls-14" d="M194,43.59c23.91,0,15.18-23.58,15.07-24.38s-.8-6.46,5.21-6.46,6,5.42,6,5.42V87.25H167.73V18.17s0-5.42,6-5.42,5.33,5.67,5.22,6.46S170.11,43.59,194,43.59Z"/><path class="cls-12" d="M204.16,74.35l3.78-6.66c.4-1.11-.14-2.4-.93-3.6l-2-3.26-5.41,3.38,3.83,6.21a4.53,4.53,0,0,1,.77,3.93Zm-6.22,4.19.22-2.15,3.44-.26c1.62-.07,2.06-2,2-3a7.56,7.56,0,0,0-1.4-3.19l-4.3,0-.13-1.93-3.06,5.39,3.22,5.06Zm-.34-26-7.66-.08c-1.17.19-2,1.29-2.7,2.56l-1.86,3.36L191,61.48l3.58-6.35a4.52,4.52,0,0,1,3.06-2.58ZM204.28,56l-2,.85-1.9-2.89c-.85-1.38-2.71-.85-3.56-.31a7.48,7.48,0,0,0-2.11,2.76l2.12,3.75-1.63,1,6.21.07L204.28,56ZM181.34,68.38,185,75.11c.73.94,2.11,1.16,3.54,1.12h3.85V69.86l-7.29-.06a4.53,4.53,0,0,1-3.75-1.42Zm-.25-7.5,1.7,1.33-1.6,3.06c-.8,1.41.57,2.79,1.45,3.27a7.69,7.69,0,0,0,3.45.51l2.24-3.68,1.7.92-2.95-5.46-6,.05Z"/></g></g></svg>