<svg xmlns="http://www.w3.org/2000/svg" xmlns:xlink="http://www.w3.org/1999/xlink" viewBox="0 0 336.72 179.31"><defs><style>.cls-1{fill:url(#linear-gradient);}.cls-2{fill:url(#linear-gradient-2);}.cls-3{fill:url(#linear-gradient-3);}.cls-4{fill:url(#linear-gradient-4);}.cls-5{fill:url(#linear-gradient-5);}.cls-6{fill:url(#linear-gradient-6);}.cls-7{fill:url(#linear-gradient-7);}.cls-8{fill:url(#linear-gradient-8);}.cls-9{fill:url(#linear-gradient-9);}.cls-10{fill:url(#linear-gradient-10);}.cls-11{fill:url(#linear-gradient-11);}.cls-12{fill:url(#linear-gradient-12);}.cls-13{fill:url(#linear-gradient-13);}.cls-14{fill:url(#linear-gradient-14);}.cls-15{fill:url(#linear-gradient-15);}.cls-16{fill:url(#linear-gradient-16);}.cls-17{fill:url(#linear-gradient-17);}.cls-18{fill:url(#linear-gradient-18);}.cls-19{fill:url(#linear-gradient-19);}.cls-20{fill:url(#linear-gradient-20);}.cls-21{fill:url(#linear-gradient-21);}.cls-22{fill:url(#linear-gradient-22);}.cls-23{fill:url(#linear-gradient-23);}.cls-24{fill:url(#linear-gradient-24);}.cls-25{fill:url(#linear-gradient-25);}.cls-26{fill:url(#linear-gradient-26);}.cls-27{fill:url(#linear-gradient-27);}.cls-28{fill:url(#linear-gradient-28);}.cls-29{fill:url(#linear-gradient-29);}.cls-30{fill:url(#linear-gradient-30);}.cls-31{fill:url(#linear-gradient-31);}.cls-32{fill:url(#linear-gradient-32);}.cls-33{fill:url(#linear-gradient-33);}.cls-34{fill:url(#linear-gradient-34);}.cls-35{fill:url(#linear-gradient-35);}.cls-36{fill:url(#linear-gradient-36);}.cls-37{fill:url(#linear-gradient-37);}.cls-38{fill:url(#linear-gradient-38);}.cls-39{fill:url(#linear-gradient-39);}.cls-40{fill:url(#linear-gradient-40);}.cls-41{fill:url(#linear-gradient-41);}.cls-42{fill:url(#linear-gradient-42);}.cls-43{fill:url(#linear-gradient-43);}.cls-44{fill:url(#linear-gradient-44);}.cls-45{fill:url(#linear-gradient-45);}.cls-46{fill:url(#linear-gradient-46);}.cls-47{fill:url(#linear-gradient-47);}.cls-48{fill:url(#linear-gradient-48);}.cls-49{fill:url(#linear-gradient-49);}.cls-50{fill:url(#linear-gradient-50);}.cls-51{fill:url(#linear-gradient-51);}.cls-52{fill:url(#linear-gradient-52);}.cls-53{fill:url(#linear-gradient-53);}.cls-54{fill:url(#linear-gradient-54);}.cls-55{fill:url(#linear-gradient-55);}.cls-56{fill:url(#linear-gradient-56);}.cls-57{fill:url(#linear-gradient-57);}.cls-58{fill:url(#linear-gradient-58);}.cls-59{fill:url(#linear-gradient-59);}.cls-60{fill:url(#linear-gradient-60);}.cls-61{fill:url(#linear-gradient-61);}.cls-62{fill:url(#linear-gradient-62);}.cls-63{fill:url(#linear-gradient-63);}.cls-64{fill:url(#linear-gradient-64);}.cls-65{fill:url(#linear-gradient-65);}.cls-66{fill:url(#linear-gradient-66);}.cls-67{fill:url(#linear-gradient-67);}.cls-68{fill:url(#linear-gradient-68);}.cls-69{fill:url(#linear-gradient-69);}.cls-70{fill:url(#linear-gradient-70);}.cls-71{fill:url(#linear-gradient-71);}.cls-72{fill:url(#linear-gradient-72);}.cls-73{fill:url(#linear-gradient-73);}.cls-74{fill:url(#linear-gradient-74);}.cls-75{fill:url(#linear-gradient-75);}.cls-76{fill:url(#linear-gradient-76);}.cls-77{fill:url(#linear-gradient-77);}.cls-78{fill:url(#linear-gradient-78);}.cls-79{fill:url(#linear-gradient-79);}.cls-80{fill:url(#linear-gradient-80);}.cls-81{fill:url(#linear-gradient-81);}.cls-82{fill:url(#linear-gradient-82);}.cls-83{fill:url(#linear-gradient-83);}.cls-84{fill:url(#linear-gradient-84);}.cls-85{fill:url(#linear-gradient-85);}.cls-86{fill:url(#linear-gradient-86);}.cls-87{fill:url(#linear-gradient-87);}.cls-88{fill:url(#linear-gradient-88);}.cls-89{fill:url(#linear-gradient-89);}.cls-90{fill:url(#linear-gradient-90);}.cls-91{fill:url(#linear-gradient-91);}.cls-92{fill:url(#linear-gradient-92);}.cls-93{fill:url(#linear-gradient-93);}.cls-94{fill:url(#linear-gradient-94);}.cls-95{fill:url(#linear-gradient-95);}.cls-96{fill:url(#linear-gradient-96);}.cls-97{fill:url(#linear-gradient-97);}.cls-98{fill:url(#linear-gradient-98);}.cls-99{fill:url(#linear-gradient-99);}.cls-100{fill:url(#linear-gradient-100);}.cls-101{fill:url(#linear-gradient-101);}.cls-102{fill:url(#linear-gradient-102);}.cls-103{fill:url(#linear-gradient-103);}.cls-104{fill:url(#linear-gradient-104);}.cls-105{fill:url(#linear-gradient-105);}.cls-106{fill:url(#linear-gradient-106);}.cls-107{fill:url(#linear-gradient-107);}.cls-108{fill:url(#linear-gradient-108);}.cls-109{fill:url(#linear-gradient-109);}.cls-110{fill:url(#linear-gradient-110);}.cls-111{fill:url(#linear-gradient-111);}.cls-112{fill:url(#linear-gradient-112);}.cls-113{fill:url(#linear-gradient-113);}.cls-114{fill:url(#linear-gradient-114);}.cls-115{fill:url(#linear-gradient-115);}.cls-116{fill:url(#linear-gradient-116);}.cls-117{fill:url(#linear-gradient-117);}.cls-118,.cls-132{fill:#fff;}.cls-119{fill:#009d4e;}.cls-120{fill:url(#radial-gradient);}.cls-121{fill:url(#radial-gradient-2);}.cls-122{font-size:22.75px;fill:#70d44b;font-family:Chalkduster;}.cls-123{letter-spacing:-0.02em;}.cls-124{letter-spacing:0.01em;}.cls-125{letter-spacing:0.03em;}.cls-126{letter-spacing:0.01em;}.cls-127{letter-spacing:0.01em;}.cls-128{letter-spacing:0.04em;}.cls-129{letter-spacing:-0.01em;}.cls-130{letter-spacing:0.02em;}.cls-131{letter-spacing:0em;}.cls-132,.cls-133{font-size:53.63px;font-family:MavenPro-Medium, Maven Pro;font-weight:500;letter-spacing:-0.02em;}.cls-132{stroke:#fff;stroke-linecap:round;stroke-linejoin:round;stroke-width:2.12px;}.cls-133{fill:#009d4f;}</style><linearGradient id="linear-gradient" x1="184.74" y1="57.15" x2="184.74" y2="50.96" gradientUnits="userSpaceOnUse"><stop offset="0.31" stop-color="#7bc24e"/><stop offset="0.43" stop-color="#6cbd4e"/><stop offset="0.66" stop-color="#44b14e"/><stop offset="0.98" stop-color="#049e4e"/><stop offset="1" stop-color="#009d4e"/></linearGradient><linearGradient id="linear-gradient-2" x1="230.62" y1="79" x2="230.62" y2="78.57" xlink:href="#linear-gradient"/><linearGradient id="linear-gradient-3" x1="233.75" y1="84.7" x2="233.75" y2="82.99" xlink:href="#linear-gradient"/><linearGradient id="linear-gradient-4" x1="244.01" y1="93.16" x2="244.01" y2="91.65" xlink:href="#linear-gradient"/><linearGradient id="linear-gradient-5" x1="241.95" y1="92.88" x2="241.95" y2="92.62" xlink:href="#linear-gradient"/><linearGradient id="linear-gradient-6" x1="248.08" y1="93.27" x2="248.08" y2="89.62" xlink:href="#linear-gradient"/><linearGradient id="linear-gradient-7" x1="245.31" y1="70.52" x2="245.31" y2="69.41" xlink:href="#linear-gradient"/><linearGradient id="linear-gradient-8" x1="246.62" y1="70.7" x2="246.62" y2="69.11" xlink:href="#linear-gradient"/><linearGradient id="linear-gradient-9" x1="247.57" y1="72.44" x2="247.57" y2="71.52" xlink:href="#linear-gradient"/><linearGradient id="linear-gradient-10" x1="238.4" y1="63.58" x2="238.4" y2="63.03" xlink:href="#linear-gradient"/><linearGradient id="linear-gradient-11" x1="235.72" y1="61.62" x2="235.72" y2="61.29" xlink:href="#linear-gradient"/><linearGradient id="linear-gradient-12" x1="239.87" y1="72.08" x2="239.87" y2="61.95" xlink:href="#linear-gradient"/><linearGradient id="linear-gradient-13" x1="236.36" y1="65.34" x2="236.36" y2="64.9" xlink:href="#linear-gradient"/><linearGradient id="linear-gradient-14" x1="234.3" y1="63.06" x2="234.3" y2="61.89" xlink:href="#linear-gradient"/><linearGradient id="linear-gradient-15" x1="232.7" y1="61.92" x2="232.7" y2="61.37" xlink:href="#linear-gradient"/><linearGradient id="linear-gradient-16" x1="233.72" y1="61.2" x2="233.72" y2="60.97" xlink:href="#linear-gradient"/><linearGradient id="linear-gradient-17" x1="234.47" y1="60.83" x2="234.47" y2="59.51" xlink:href="#linear-gradient"/><linearGradient id="linear-gradient-18" x1="230.67" y1="61.5" x2="230.67" y2="57.91" xlink:href="#linear-gradient"/><linearGradient id="linear-gradient-19" x1="230.52" y1="83.05" x2="230.52" y2="66.28" xlink:href="#linear-gradient"/><linearGradient id="linear-gradient-20" x1="233.14" y1="66.68" x2="233.14" y2="66.14" xlink:href="#linear-gradient"/><linearGradient id="linear-gradient-21" x1="230.69" y1="64.01" x2="230.69" y2="63.44" xlink:href="#linear-gradient"/><linearGradient id="linear-gradient-22" x1="231.54" y1="63.55" x2="231.54" y2="63.26" xlink:href="#linear-gradient"/><linearGradient id="linear-gradient-23" x1="230.56" y1="63.3" x2="230.56" y2="63.08" xlink:href="#linear-gradient"/><linearGradient id="linear-gradient-24" x1="234.44" y1="64.92" x2="234.44" y2="64.66" xlink:href="#linear-gradient"/><linearGradient id="linear-gradient-25" x1="227.57" y1="62.98" x2="227.57" y2="62.19" xlink:href="#linear-gradient"/><linearGradient id="linear-gradient-26" x1="228.83" y1="62.96" x2="228.83" y2="61.91" xlink:href="#linear-gradient"/><linearGradient id="linear-gradient-27" x1="226.58" y1="61.91" x2="226.58" y2="61" xlink:href="#linear-gradient"/><linearGradient id="linear-gradient-28" x1="225.28" y1="60.89" x2="225.28" y2="60.45" xlink:href="#linear-gradient"/><linearGradient id="linear-gradient-29" x1="222.54" y1="60.61" x2="222.54" y2="57.35" xlink:href="#linear-gradient"/><linearGradient id="linear-gradient-30" x1="218.89" y1="57.19" x2="218.89" y2="49.51" xlink:href="#linear-gradient"/><linearGradient id="linear-gradient-31" x1="222.24" y1="56.57" x2="222.24" y2="56.25" xlink:href="#linear-gradient"/><linearGradient id="linear-gradient-32" x1="217.32" y1="53.91" x2="217.32" y2="53.33" xlink:href="#linear-gradient"/><linearGradient id="linear-gradient-33" x1="216.98" y1="52.5" x2="216.98" y2="52.02" xlink:href="#linear-gradient"/><linearGradient id="linear-gradient-34" x1="230.9" y1="53.85" x2="230.9" y2="53.09" xlink:href="#linear-gradient"/><linearGradient id="linear-gradient-35" x1="226.83" y1="58.74" x2="226.83" y2="54.34" xlink:href="#linear-gradient"/><linearGradient id="linear-gradient-36" x1="233.89" y1="57.33" x2="233.89" y2="55.32" xlink:href="#linear-gradient"/><linearGradient id="linear-gradient-37" x1="233.8" y1="55.29" x2="233.8" y2="53.63" xlink:href="#linear-gradient"/><linearGradient id="linear-gradient-38" x1="235.08" y1="55.23" x2="235.08" y2="54" xlink:href="#linear-gradient"/><linearGradient id="linear-gradient-39" x1="233.93" y1="53.81" x2="233.93" y2="50.23" xlink:href="#linear-gradient"/><linearGradient id="linear-gradient-40" x1="235.47" y1="48.66" x2="235.47" y2="47.49" xlink:href="#linear-gradient"/><linearGradient id="linear-gradient-41" x1="227.54" y1="47.32" x2="227.54" y2="46.53" xlink:href="#linear-gradient"/><linearGradient id="linear-gradient-42" x1="243.41" y1="47.89" x2="243.41" y2="46.55" xlink:href="#linear-gradient"/><linearGradient id="linear-gradient-43" x1="245.32" y1="48.07" x2="245.32" y2="47.37" xlink:href="#linear-gradient"/><linearGradient id="linear-gradient-44" x1="248.01" y1="49.5" x2="248.01" y2="46.54" xlink:href="#linear-gradient"/><linearGradient id="linear-gradient-45" x1="253.43" y1="48.09" x2="253.43" y2="45.6" xlink:href="#linear-gradient"/><linearGradient id="linear-gradient-46" x1="257.19" y1="48.43" x2="257.19" y2="48" xlink:href="#linear-gradient"/><linearGradient id="linear-gradient-47" x1="258.71" y1="48.75" x2="258.71" y2="48.48" xlink:href="#linear-gradient"/><linearGradient id="linear-gradient-48" x1="255.04" y1="45.89" x2="255.04" y2="42.12" xlink:href="#linear-gradient"/><linearGradient id="linear-gradient-49" x1="207.83" y1="46.57" x2="207.83" y2="44.86" xlink:href="#linear-gradient"/><linearGradient id="linear-gradient-50" x1="150.26" y1="18.41" x2="150.26" y2="16.44" xlink:href="#linear-gradient"/><linearGradient id="linear-gradient-51" x1="154.17" y1="18.95" x2="154.17" y2="14.69" xlink:href="#linear-gradient"/><linearGradient id="linear-gradient-52" x1="151" y1="15.2" x2="151" y2="14.85" xlink:href="#linear-gradient"/><linearGradient id="linear-gradient-53" x1="158.3" y1="23.91" x2="158.3" y2="23.64" xlink:href="#linear-gradient"/><linearGradient id="linear-gradient-54" x1="162.5" y1="24.08" x2="162.5" y2="22.96" xlink:href="#linear-gradient"/><linearGradient id="linear-gradient-55" x1="162.54" y1="22.7" x2="162.54" y2="22.16" xlink:href="#linear-gradient"/><linearGradient id="linear-gradient-56" x1="192.97" y1="11.67" x2="192.97" y2="11.3" xlink:href="#linear-gradient"/><linearGradient id="linear-gradient-57" x1="201.69" y1="11.86" x2="201.69" y2="9.44" xlink:href="#linear-gradient"/><linearGradient id="linear-gradient-58" x1="164.6" y1="16.29" x2="164.6" y2="15.65" xlink:href="#linear-gradient"/><linearGradient id="linear-gradient-59" x1="228.99" y1="16.82" x2="228.99" y2="14.16" xlink:href="#linear-gradient"/><linearGradient id="linear-gradient-60" x1="233.64" y1="18.61" x2="233.64" y2="17.23" xlink:href="#linear-gradient"/><linearGradient id="linear-gradient-61" x1="265.7" y1="36.99" x2="265.7" y2="35.06" xlink:href="#linear-gradient"/><linearGradient id="linear-gradient-62" x1="260.6" y1="34.35" x2="260.6" y2="31.1" xlink:href="#linear-gradient"/><linearGradient id="linear-gradient-63" x1="260.65" y1="34.62" x2="260.65" y2="33.32" xlink:href="#linear-gradient"/><linearGradient id="linear-gradient-64" x1="259.89" y1="33.27" x2="259.89" y2="32.93" xlink:href="#linear-gradient"/><linearGradient id="linear-gradient-65" x1="179.34" y1="26.9" x2="179.34" y2="26.5" xlink:href="#linear-gradient"/><linearGradient id="linear-gradient-66" x1="173.5" y1="26.36" x2="173.5" y2="25.94" xlink:href="#linear-gradient"/><linearGradient id="linear-gradient-67" x1="175.65" y1="25.94" x2="175.65" y2="25.68" xlink:href="#linear-gradient"/><linearGradient id="linear-gradient-68" x1="217.13" y1="60.38" x2="217.13" y2="8.57" xlink:href="#linear-gradient"/><linearGradient id="linear-gradient-69" x1="170.21" y1="5.63" x2="170.21" y2="3.84" xlink:href="#linear-gradient"/><linearGradient id="linear-gradient-70" x1="192.8" y1="6.24" x2="192.8" y2="5.33" xlink:href="#linear-gradient"/><linearGradient id="linear-gradient-71" x1="197.39" y1="6.77" x2="197.39" y2="6.57" xlink:href="#linear-gradient"/><linearGradient id="linear-gradient-72" x1="198.62" y1="6.76" x2="198.62" y2="6.47" xlink:href="#linear-gradient"/><linearGradient id="linear-gradient-73" x1="200.22" y1="7.4" x2="200.22" y2="7.04" xlink:href="#linear-gradient"/><linearGradient id="linear-gradient-74" x1="200.38" y1="6.99" x2="200.38" y2="6.56" xlink:href="#linear-gradient"/><linearGradient id="linear-gradient-75" x1="203.89" y1="8.12" x2="203.89" y2="7.26" xlink:href="#linear-gradient"/><linearGradient id="linear-gradient-76" x1="141.58" y1="13.44" x2="141.58" y2="11.55" xlink:href="#linear-gradient"/><linearGradient id="linear-gradient-77" x1="141.31" y1="7.63" x2="141.31" y2="7.43" xlink:href="#linear-gradient"/><linearGradient id="linear-gradient-78" x1="80.62" y1="22.91" x2="80.62" y2="22.35" xlink:href="#linear-gradient"/><linearGradient id="linear-gradient-79" x1="79.28" y1="25.67" x2="79.28" y2="22.21" xlink:href="#linear-gradient"/><linearGradient id="linear-gradient-80" x1="84.2" y1="22.8" x2="84.2" y2="21.56" xlink:href="#linear-gradient"/><linearGradient id="linear-gradient-81" x1="89.12" y1="23.17" x2="89.12" y2="18.83" xlink:href="#linear-gradient"/><linearGradient id="linear-gradient-82" x1="84.2" y1="24.03" x2="84.2" y2="23.18" xlink:href="#linear-gradient"/><linearGradient id="linear-gradient-83" x1="76.67" y1="26.19" x2="76.67" y2="25.79" xlink:href="#linear-gradient"/><linearGradient id="linear-gradient-84" x1="79.52" y1="26.29" x2="79.52" y2="24.05" xlink:href="#linear-gradient"/><linearGradient id="linear-gradient-85" x1="77.7" y1="26.83" x2="77.7" y2="26.5" xlink:href="#linear-gradient"/><linearGradient id="linear-gradient-86" x1="81.65" y1="27.15" x2="81.65" y2="24.88" xlink:href="#linear-gradient"/><linearGradient id="linear-gradient-87" x1="67.14" y1="36.09" x2="67.14" y2="31.64" xlink:href="#linear-gradient"/><linearGradient id="linear-gradient-88" x1="74.88" y1="33.68" x2="74.88" y2="27.5" xlink:href="#linear-gradient"/><linearGradient id="linear-gradient-89" x1="72.44" y1="31.6" x2="72.44" y2="26.93" xlink:href="#linear-gradient"/><linearGradient id="linear-gradient-90" x1="66.63" y1="33.78" x2="66.63" y2="30.04" xlink:href="#linear-gradient"/><linearGradient id="linear-gradient-91" x1="69.82" y1="29.55" x2="69.82" y2="29.23" xlink:href="#linear-gradient"/><linearGradient id="linear-gradient-92" x1="72.02" y1="29.13" x2="72.02" y2="27.09" xlink:href="#linear-gradient"/><linearGradient id="linear-gradient-93" x1="96.48" y1="20.02" x2="96.48" y2="18.85" xlink:href="#linear-gradient"/><linearGradient id="linear-gradient-94" x1="99.16" y1="23.38" x2="99.16" y2="18.07" xlink:href="#linear-gradient"/><linearGradient id="linear-gradient-95" x1="99.26" y1="21.7" x2="99.26" y2="20.86" xlink:href="#linear-gradient"/><linearGradient id="linear-gradient-96" x1="94.59" y1="26.08" x2="94.59" y2="24.2" xlink:href="#linear-gradient"/><linearGradient id="linear-gradient-97" x1="95.35" y1="25.89" x2="95.35" y2="25.24" xlink:href="#linear-gradient"/><linearGradient id="linear-gradient-98" x1="97.6" y1="25.15" x2="97.6" y2="24.73" xlink:href="#linear-gradient"/><linearGradient id="linear-gradient-99" x1="116.47" y1="26.84" x2="116.47" y2="24.25" xlink:href="#linear-gradient"/><linearGradient id="linear-gradient-100" x1="111.39" y1="26.85" x2="111.39" y2="26.51" xlink:href="#linear-gradient"/><linearGradient id="linear-gradient-101" x1="105.42" y1="41.98" x2="105.42" y2="41.48" xlink:href="#linear-gradient"/><linearGradient id="linear-gradient-102" x1="105.06" y1="44.49" x2="105.06" y2="42.8" xlink:href="#linear-gradient"/><linearGradient id="linear-gradient-103" x1="102.86" y1="44.3" x2="102.86" y2="44.01" xlink:href="#linear-gradient"/><linearGradient id="linear-gradient-104" x1="106.88" y1="44.65" x2="106.88" y2="44.26" xlink:href="#linear-gradient"/><linearGradient id="linear-gradient-105" x1="110.51" y1="43.76" x2="110.51" y2="42.11" xlink:href="#linear-gradient"/><linearGradient id="linear-gradient-106" x1="113.66" y1="42.29" x2="113.66" y2="41.76" xlink:href="#linear-gradient"/><linearGradient id="linear-gradient-107" x1="108.86" y1="42.38" x2="108.86" y2="42.16" xlink:href="#linear-gradient"/><linearGradient id="linear-gradient-108" x1="111.63" y1="28.35" x2="111.63" y2="27.95" xlink:href="#linear-gradient"/><linearGradient id="linear-gradient-109" x1="127.86" y1="74.12" x2="127.86" y2="73.37" xlink:href="#linear-gradient"/><linearGradient id="linear-gradient-110" x1="118.06" y1="44.88" x2="118.06" y2="44.61" xlink:href="#linear-gradient"/><linearGradient id="linear-gradient-111" x1="87.46" y1="77.12" x2="87.46" y2="22.03" xlink:href="#linear-gradient"/><linearGradient id="linear-gradient-112" x1="50.15" y1="55.45" x2="50.15" y2="54.01" xlink:href="#linear-gradient"/><linearGradient id="linear-gradient-113" x1="43.41" y1="63.25" x2="43.41" y2="62.62" xlink:href="#linear-gradient"/><linearGradient id="linear-gradient-114" x1="42.76" y1="64.41" x2="42.76" y2="63.51" xlink:href="#linear-gradient"/><linearGradient id="linear-gradient-115" x1="41.58" y1="60.9" x2="41.58" y2="59.79" xlink:href="#linear-gradient"/><linearGradient id="linear-gradient-116" x1="64.55" y1="47.1" x2="64.55" y2="46.38" xlink:href="#linear-gradient"/><linearGradient id="linear-gradient-117" x1="164.45" y1="62.52" x2="164.45" y2="1.27" xlink:href="#linear-gradient"/><radialGradient id="radial-gradient" cx="306.23" cy="69.56" r="33.04" gradientUnits="userSpaceOnUse"><stop offset="0" stop-color="#c3dfa4"/><stop offset="0.28" stop-color="#a5d381"/><stop offset="0.57" stop-color="#8eca65"/><stop offset="0.81" stop-color="#80c454"/><stop offset="1" stop-color="#7bc24e"/></radialGradient><radialGradient id="radial-gradient-2" cx="292.39" cy="21.88" r="20.35" xlink:href="#radial-gradient"/></defs><title>good-earth-bag</title><g id="Layer_2" data-name="Layer 2"><g id="Layer_1-2" data-name="Layer 1"><path class="cls-1" d="M186.29,51.42a.17.17,0,0,1-.16.14H186a.49.49,0,0,0-.38.2,3.07,3.07,0,0,1-1.2.72.93.93,0,0,1-.24,0c-1,0-1,.59-1,.59a2.22,2.22,0,0,0,.1,1,.32.32,0,0,1-.09.33,8.52,8.52,0,0,0-.75.84c-.09.12,0,.5.05.66a.76.76,0,0,1,0,.15,1.08,1.08,0,0,0,.71,1.07.11.11,0,0,0,.08,0,2,2,0,0,0,.61,0,1.09,1.09,0,0,0,.7-.42c.61-1.4,1.12-1.76,1.89-3.54a.58.58,0,0,1,.4-.26c.06,0,.11-.08.13-.23a7.14,7.14,0,0,0-.39-1.65C186.4,50.84,186.32,51.24,186.29,51.42Z"/><path class="cls-2" d="M230.68,78.7c-.16-.09-.25-.22-.35,0s.08.15.24.23.28.16.32.1S230.83,78.79,230.68,78.7Z"/><path class="cls-3" d="M234.55,83.86a.83.83,0,0,0-.53-.16c-.12,0-.19,0-.35-.2s-.25-.38-.43-.48a.21.21,0,0,0-.31.1,1.74,1.74,0,0,0,.15,1.44c.06.11.25.13.37.11s.34,0,.46,0a.77.77,0,0,0,.74-.65C234.68,84,234.63,83.9,234.55,83.86Z"/><path class="cls-4" d="M246.24,92.41c-.08,0-.16-.09-.15-.17s-.24-.56-.47-.31a.49.49,0,0,1-.37.1,8,8,0,0,1-1.76,0,.82.82,0,0,1-.33-.15l0,0a1.05,1.05,0,0,0-.53-.16,2.13,2.13,0,0,0-.87.08.17.17,0,0,0,0,.29,3,3,0,0,1,.73.86.32.32,0,0,0,.14.12,1.48,1.48,0,0,0,1.36,0,.34.34,0,0,1,.22-.07,2.8,2.8,0,0,1,.73.09.6.6,0,0,0,.35,0,4.32,4.32,0,0,1,.88,0C246.46,92.93,246.44,92.37,246.24,92.41Z"/><path class="cls-5" d="M241.82,92.66c0,.1,0,.16.17.22s0-.21,0-.21S241.84,92.56,241.82,92.66Z"/><path class="cls-6" d="M248.87,92.58a.23.23,0,0,1-.16-.06.94.94,0,0,1-.22-.29.52.52,0,0,1-.05-.32,1,1,0,0,1,.12-.28c.06-.29-.21-.3-.33-.22s-.18,0-.13-.19a1.31,1.31,0,0,0-.26-1.59c-.16,0-.13.28,0,.66,0,0,.07.63.13.92a.21.21,0,0,1,0,.16,3,3,0,0,1-.17.28.48.48,0,0,1-.32.19,1.08,1.08,0,0,1-.36,0A.08.08,0,0,0,247,92a3.77,3.77,0,0,1,.22.45.36.36,0,0,1-.15.46c-.08,0-.3,0-.26.18a.48.48,0,0,0,.53.2c.23-.07.34,0,.49-.07a.57.57,0,0,0,.22-.11.36.36,0,0,1,.53,0,.35.35,0,0,0,.16.06,1.48,1.48,0,0,1,.29,0,.33.33,0,0,0,.26-.08.3.3,0,0,0,.09-.29S249.39,92.55,248.87,92.58Z"/><path class="cls-7" d="M246.22,69.92c-.27-.15-.1.2-.22.24s-.54,0-.59,0-1.31-.89-1.3-.75a1.58,1.58,0,0,0,.26.47l0,0a3.73,3.73,0,0,0,.89.58,5.81,5.81,0,0,0,1.19-.14C246.56,70.28,246.49,70.07,246.22,69.92Z"/><path class="cls-8" d="M246.88,70.7h0a.34.34,0,0,0,.06-.06.33.33,0,0,0,0-.23,1.54,1.54,0,0,0-.26-.6,5.94,5.94,0,0,0-.39-.54l-.11-.14s0,0,0,0a.75.75,0,0,0,.1.2c.13.29.23.28.32.49a2.64,2.64,0,0,0,.15.52c0,.06,0,.1,0,.11h0a.09.09,0,0,0,0,.13.18.18,0,0,0,.18.11Z"/><path class="cls-9" d="M247.42,72.26s0,0,0,0,0,0,0,0,.15.13.23.09-.15-.86-.15-.86-.17,0-.18,0,0,.47,0,.59a.14.14,0,0,1,0,.06Z"/><path class="cls-10" d="M238.43,63.55c.08,0,.16,0,.19,0s-.13-.36-.22-.45a.18.18,0,0,0-.21,0,.11.11,0,0,0,0,.17l.14.16S238.36,63.51,238.43,63.55Z"/><path class="cls-11" d="M235.57,61.51a.11.11,0,0,0,.08,0h.06a.19.19,0,0,0,.21.05c.06,0,.06-.11,0-.17a.54.54,0,0,0-.34-.14c-.07,0-.13.05-.11.12A.15.15,0,0,0,235.57,61.51Z"/><path class="cls-12" d="M242.44,70.8a.49.49,0,0,0,.2.3c.94.68.78.83,1,.94A.25.25,0,0,0,244,72a5,5,0,0,1-.74-1.53A.68.68,0,0,0,243,70a.38.38,0,0,1-.09-.16c0-.08,0-.14.05-.21s.39-.06.39-.06a.47.47,0,0,0,.09-.12c.06-.12,0-.29-.19-.38-.54-.3-.66-.49-.59-.92a.45.45,0,0,0-.09-.3,8.62,8.62,0,0,0-2-2.43,3.77,3.77,0,0,1-1.07-1,.81.81,0,0,0-.51-.31c-.82-.11-1.39.42-1.54,0-.08-.22-.18-.46-.26-.63a.4.4,0,0,1,0-.46l.12,0a.07.07,0,0,0,.07,0c0-.15,0-.55-.32-.46,0,0-.16-.43-.38-.45a2.34,2.34,0,0,0-.92-.07.05.05,0,0,0,0,.09,1.1,1.1,0,0,1,.3.53.39.39,0,0,0,.11.22,3,3,0,0,0,.54.28c.18.08.14.06.15.13s0,.05,0,.08-.08,0-.19,0a1.13,1.13,0,0,0-.53-.2c-.07,0-.11,0-.08.1a.82.82,0,0,1,.07.51c0,.2.2.14.38.08a.24.24,0,0,1,.25.11,3.79,3.79,0,0,0,.43.61,4.92,4.92,0,0,1,1.33,1.4.78.78,0,0,1,.1.48c-.05.25-.06.5-.73.56,0,0-.21.27.11.31a2.4,2.4,0,0,1,.71.27.51.51,0,0,1,.28.33,2,2,0,0,0,1,1.1.49.49,0,0,0,.38.06,4.41,4.41,0,0,1,.79-.18.73.73,0,0,1,.58.2A3.4,3.4,0,0,1,242.44,70.8Z"/><path class="cls-13" d="M236.16,65.34a1.21,1.21,0,0,0,.33-.13.17.17,0,0,0,.09-.24l-.09-.06c-.29,0-.36.31-.37.4v0h0Z"/><path class="cls-14" d="M234.87,63a.26.26,0,0,0,.15,0,.12.12,0,0,0,.07-.18c-.42-.74-1.09-1.08-1.46-1-.09,0-.16.06-.14.14a.24.24,0,0,0,.2.16,1.9,1.9,0,0,1,1.09.75A.26.26,0,0,0,234.87,63Z"/><path class="cls-15" d="M233,61.79c.09-.07,0-.21-.18-.36s-.45-.08-.4.06a2.35,2.35,0,0,0,.18.36C232.65,62,232.87,61.88,233,61.79Z"/><path class="cls-16" d="M233.69,61.17h0a.1.1,0,0,0,.13,0,.09.09,0,0,0,0-.13l-.06,0a.12.12,0,0,0-.15,0,.09.09,0,0,0,0,.13Z"/><path class="cls-17" d="M234.14,60.81l.06,0h0a.67.67,0,0,1,.21-.43.14.14,0,0,1,.11,0c.19,0,.35-.14.43-.24v0L234.9,60h0a.74.74,0,0,1-.2-.15s0-.19,0-.32,0,0-.11-.06c-.25,0-.14.2-.39.28-.06,0,0,.24,0,.32s0,.07-.06.1A.41.41,0,0,0,234.14,60.81Z"/><path class="cls-18" d="M232.23,59a8.74,8.74,0,0,1-1.47-.88s-.93-.55-1.27.35a.76.76,0,0,1-.37.11c-.1,0-.18.26-.22.42a.25.25,0,0,1-.14.16l-.32.16a.3.3,0,0,0,.06.31c.13.1.23,0,.23.27a.78.78,0,0,1-.42.58c-.09,0,.06.37.45.27s.26-.88.38-1,.52-.07.52-.07.19,0-.07.51c0,0-.07.53.31.73a.19.19,0,0,1,.1.15.53.53,0,0,1-.08.37s.16.24.51,0a1.06,1.06,0,0,0-.23-.87.44.44,0,0,1,.12-.24c.06,0,0-.12,0-.2s-.24-.41-.21-.46a5,5,0,0,1,.91-.07h.18a.57.57,0,0,0,.22,0c.11,0,0-.18-.07-.15s-.28,0-.28,0a2,2,0,0,0-1-.27.3.3,0,0,1-.24-.11c-.11-.11-.25-.29-.22-.33s.14-.55.51-.48a4.34,4.34,0,0,1,1.53.83,1.2,1.2,0,0,0,1.34.09c0-.06-.1-.22-.57-.13A.4.4,0,0,1,232.23,59Z"/><path class="cls-19" d="M240.65,77.65a.76.76,0,0,0-.14-.8.68.68,0,0,1-.23-.49,2.92,2.92,0,0,0-.67-1.82.51.51,0,0,1-.14-.39,1,1,0,0,1,.14-.43.49.49,0,0,0,0-.44c0-.09-.05-.17,0-.21s.64-1-.07-1.2c-.52-.12-.26-.54-.1-.74a.37.37,0,0,0,.09-.27c0-.12,0-.24,0-.36a.68.68,0,0,1,.09-.35l.12-.2s-.12-.38-.43-.26a6.87,6.87,0,0,0-1.41,1.78.45.45,0,0,1-.27.19l-.11,0a.42.42,0,0,0-.24.14c-.16.19-.55.49-1-.36a1.07,1.07,0,0,0-.15-.22l-.25-.26a.65.65,0,0,1-.15-.23,1.23,1.23,0,0,0-.42-.59.5.5,0,0,1-.22-.3.74.74,0,0,0-.19-.41c-.2-.15.25-.55.66-.67s.93.14.15-.56a3.75,3.75,0,0,1-1.3-.88.27.27,0,0,1-.06-.1c-.1-.26-.32-.45-.29-.34s-.09.17-.14.25-.32-.1-.7-.29a.78.78,0,0,0-.52,0,.87.87,0,0,0-.23.16.56.56,0,0,1-.3.09c-.17,0-.38,0-.41.23s-.16.16-.29.1a3.17,3.17,0,0,0-.42-.19.25.25,0,0,1-.19-.22c0-.27-.35-.69-1.19-.7a1,1,0,0,0-.88.29.36.36,0,0,1-.42,0l-.12-.07s-.15,0-.14.28-.35.17-.38,0,.16-.22,0-.39-.52.35-.73.56a2.12,2.12,0,0,1-2,0,.53.53,0,0,0-.2-.05,3.85,3.85,0,0,1-1.22-.3.65.65,0,0,0-.33-.06,4.27,4.27,0,0,1-1.29,0,.33.33,0,0,0-.37.12,1.47,1.47,0,0,0-.17.36.25.25,0,0,1-.14.16c-.16.09-.37.35-.13,1.12,0,0-.08.11-.38.1s-.14.81.07,1.32a.42.42,0,0,1,0,.31,1.54,1.54,0,0,0-.1,1.06.65.65,0,0,1,0,.34,1.8,1.8,0,0,1-.08.21.58.58,0,0,1-.39.32c-.18,0-.38.19,0,.58a2.48,2.48,0,0,0,1.2.71.57.57,0,0,0,.18,0h.81a.8.8,0,0,1,.3.06c.23.09.72.29,1.47.67a.54.54,0,0,0,.39,0,2.31,2.31,0,0,1,1.91.31.62.62,0,0,0,.26.09c.58,0,3.44.82,3.24,3,0,.13.14.24.28.23s.48,0,.72-.06a.41.41,0,0,0,.27-.11s.15-.17.23,0c.16.31-.79.67-.67.91,0,.07.45-.08.51-.12s.1,0,.11.07a.39.39,0,0,1-.13.45s0,.09,0,.13a.72.72,0,0,1,.29.31.62.62,0,0,1,0,.4.8.8,0,0,0,.29,1.06,2.41,2.41,0,0,1,.88.81.44.44,0,0,0,.33.19h.3a.52.52,0,0,1,.41.26l.17.33a.55.55,0,0,0,.55.3A1.85,1.85,0,0,1,236,83a.29.29,0,0,0,.42,0c.21-.28.56-.7.82-.59s.77-.68,1.55-.52,1.9-1.29,2-1.89a1.09,1.09,0,0,1,0-.26,1.79,1.79,0,0,0,0-1.57A.55.55,0,0,1,240.65,77.65Z"/><path class="cls-20" d="M232.7,66.38a1.29,1.29,0,0,0,.56.3h.05s.08,0,.09,0a.2.2,0,0,0,.18-.1s0,0,0-.05l-.11-.08a2.49,2.49,0,0,0-.52-.27c-.07,0-.06,0-.09.07s-.14,0-.2.07h0a.17.17,0,0,1,0,.07Z"/><path class="cls-21" d="M230.06,64c.57-.24,1.7.18,1.82,0s-.8-.38-1.06-.44l-.18,0c-1.37-.12-1.12.3-1.12.3A.44.44,0,0,0,230.06,64Z"/><path class="cls-22" d="M231.73,63.48s0-.12-.1-.17-.25-.08-.28,0a.26.26,0,0,0,.12.25C231.55,63.57,231.71,63.53,231.73,63.48Z"/><path class="cls-23" d="M230.81,63.22s-.19-.11-.29-.13-.2,0-.2.09.14.08.24.11S230.8,63.27,230.81,63.22Z"/><path class="cls-24" d="M234.4,64.67c-.08,0-.15.15-.13.18a.13.13,0,0,0,.17.06c.09,0,.22,0,.14-.19A.15.15,0,0,0,234.4,64.67Z"/><path class="cls-25" d="M227.62,62.82c.19.2.45.22.42,0a1.06,1.06,0,0,0-.51-.57c-.37-.15-.42,0-.42,0C227.09,62.46,227.55,62.27,227.62,62.82Z"/><path class="cls-26" d="M228.89,62.72c.17.09.31,0,.61.11s.41.12.41.12,0-.11-.26-.25a4.32,4.32,0,0,0-.76-.21,4.3,4.3,0,0,1-.68-.49c-.17-.17-.48-.06-.45,0a1,1,0,0,0,.53.37A1.45,1.45,0,0,0,228.89,62.72Z"/><path class="cls-27" d="M227.58,61.83c0-.17-.6-.46-.66-.46a1.31,1.31,0,0,1-.39,0c-.12,0-.33-.3-.49-.35a.64.64,0,0,0-.39.07c-.1,0-.06.07-.05.11a9.47,9.47,0,0,0,1,.47c.26.08.36.06.57.13S227.57,62,227.58,61.83Z"/><path class="cls-28" d="M225.06,60.5a.33.33,0,0,0,.12.35c.1,0,.28.07.32,0s-.06-.28-.16-.33S225.1,60.4,225.06,60.5Z"/><path class="cls-29" d="M220.47,57.74c.19.59.45.6,1,.94a3.8,3.8,0,0,1,1.26.72,4.64,4.64,0,0,0,1.53.76s.25.14.28.32.47.17.43,0,.19-.2-.56-.52a.38.38,0,0,1-.13-.09,1.38,1.38,0,0,1-.28-.53s-.19-.21-.34-.2c0,0-.38-.27-.37-.42s-.27-.07-.35,0-.09,0-.15,0a2.09,2.09,0,0,1-.87-.4c-.13-.17-.89-1.17-1.52-1a.1.1,0,0,0-.07.07.5.5,0,0,1-.24.12c-.13,0,.11.12.29.17Z"/><path class="cls-30" d="M220.35,57.12c.31.35.48-.67.6-.75a1.66,1.66,0,0,1,.58-.22.07.07,0,0,0,.05-.11.67.67,0,0,1-.11-.53c-.11-.35-.85-.36-.53-.07.1,0,.34.07.2.27,0,0-.09,0-.28-.11a.34.34,0,0,1-.16-.15,1.9,1.9,0,0,1-.11-.64c0-.08-.5-.17-.48-.46,0-.11.22.21.27-.25,0-.05.08-.06.05-.11a3,3,0,0,0-.86-1.05c-.08,0-.14-.09-.15-.15a.52.52,0,0,0-.11-.23h0a.57.57,0,0,0-.42-.16c-.32,0,.35-.4-.76-1.11l0,0a1.34,1.34,0,0,1-.41-.82s0-.06-.07-.08-.7-.33-.84-.66a.09.09,0,0,0-.07-.06l-.29-.11c-.11,0-.22,0-.23.08a.6.6,0,0,0,.11.4,6.23,6.23,0,0,1,1,1.62c.06.43.43.2.4,1.23s.44.18.56,1.57,1.19,1.91,1.44,2.5a.14.14,0,0,0,.16.06A.36.36,0,0,1,220.35,57.12Z"/><path class="cls-31" d="M222.44,56.51c0-.08-.13-.22-.21-.25a.14.14,0,0,0-.19.07c0,.08.08.19.16.23S222.41,56.58,222.44,56.51Z"/><path class="cls-32" d="M217.23,53.33c-.14,0-.15,0-.1.19s0,.35.28.39c.14,0,.14-.12.09-.28S217.36,53.32,217.23,53.33Z"/><path class="cls-33" d="M217.12,52.25c-.06-.13-.16-.25-.27-.23s-.12,0,0,.17,0,.29.28.31S217.18,52.39,217.12,52.25Z"/><path class="cls-34" d="M231.7,53.09s-.22.33-1.72.56c0,0-.19,0,.11.16s.59-.19,1-.17a1.27,1.27,0,0,0,.67-.11s0,0,0-.06S232,53.1,231.7,53.09Z"/><path class="cls-35" d="M225.44,54.71a3.58,3.58,0,0,0-.48.36.09.09,0,0,1-.1,0,1.64,1.64,0,0,1-.75-.49.14.14,0,0,0-.18,0c-.21.16-.79.71-.38,1.24.14.18.28.41.21.58l-.13.16v0l.07.14s-.11.31,0,.38a3.88,3.88,0,0,0,.69.26c.07,0,.09.22,0,.31s.52.26.84.18c.06,0,.1.12.12.14.32.34.57.44.6.65s1.31.05,1.32-.46a.65.65,0,0,1,.64-.28c.41.07.44-.52.44-.52a.67.67,0,0,1,.75.14c.41.36,0-.35-.12-.58a.13.13,0,0,1,0-.12l.11-.23h0a.06.06,0,0,1,0-.06c0-.12-.06-.23-.08-.35a.07.07,0,0,1,0-.09l.16-.07a.45.45,0,0,1,.14-.07,2,2,0,0,1,.22-.1h.25a.21.21,0,0,0,.11-.18.09.09,0,0,1,.1,0l.22,0h0s0,0,0,0l0,0-.42-.48-.12-.25a.51.51,0,0,0-.16-.52.35.35,0,0,0-.29,0l-.7.16c-.22.07-.41.15-.43.24l-.51-.17a7.58,7.58,0,0,0-1.44.35Z"/><path class="cls-36" d="M232.46,55.77c.18.09.3-.22.52-.12,0,0,0,.37.14.27a.61.61,0,0,1,.37-.07s.32.21.18.26-.2.34-.23.44a.08.08,0,0,0,0,.08c.09.16.43.73.7.7s.2-.22.17-.42.34-.27.26-.07,0,.26.14.28.64-.21.62-.79-.29-.83-.39-.77a.81.81,0,0,0-.22.25s-.16-.21-.27-.07-.35.07-.53.06-.19-.08-.18-.15a.28.28,0,0,0-.13-.28C232.24,55.13,232.46,55.78,232.46,55.77Z"/><path class="cls-37" d="M233.5,54.62c-.07-.08-.29-.07-.31,0,0,.46.28.52.35.53h0c.05-.17.37-.15.43-.12s.25.25.29.25a.4.4,0,0,0,.26-.16.87.87,0,0,0-.48-.68c-.27-.18.14-.35-.05-.41s-.37-.31-.43-.39h0c-.12.16-.74.52-.4.55S233.64,54.76,233.5,54.62Z"/><path class="cls-38" d="M235,54.89c.22.06.3.2.41-.08s.23-.44-.14-.65c-.22-.13-.49-.25-.4-.08s.3.59.17.52c-.34-.17-.46-.15-.44,0a2,2,0,0,0,.2.58s.33.09.23,0S234.8,54.83,235,54.89Z"/><path class="cls-39" d="M233,52.46c-.25-.07-.19.16-.19.16s.23.09.15.18.08.34.08.34c.2.28.49-.06.48-.12s-.27-.19-.11-.34a.24.24,0,0,1,.33,0s.26.63.4.5.18,0,.18,0a1.65,1.65,0,0,0,.22.45c.13.16.47.29.36.12s.09-.86-.43-.94-.5-.15-.5-.15a1.7,1.7,0,0,1-.18-.51.43.43,0,0,1,.19-.39,3.71,3.71,0,0,0,.65-.11c.41-.1.23-.32.16-.36s0-.17.06-.27.26-.2.16-.27c-.54-.39-.82-.53-1.08-.49s-.46,1-.6.92a1,1,0,0,1-.26-.12c-.12-.06-.13.42-.23.5s.29.45.29.49,0,.15-.08.17S233.26,52.53,233,52.46Z"/><path class="cls-40" d="M236.05,47.58c-.07-.13-.29-.15-.92.13a.57.57,0,0,0-.28.8.26.26,0,0,0,.25.15c.53,0,.27-.45.73-.62S236.13,47.71,236.05,47.58Z"/><path class="cls-41" d="M227.83,47.24a.65.65,0,0,1,.36-.26c.09,0,.07-.14,0-.19-.46-.21-1.34-.52-1.31.11a1.1,1.1,0,0,0,.8.42A.21.21,0,0,0,227.83,47.24Z"/><path class="cls-42" d="M243.17,47.24a.38.38,0,0,0-.48.28s0,.1.09.12a.76.76,0,0,1,.34.2.16.16,0,0,0,.14,0c.2,0,.79-.09.86-.43a.89.89,0,0,0-.37-.8c-.27-.23-.95,0-.95,0-.18.1.17.31.17.31.41.08.38.21.29.29S243.17,47.24,243.17,47.24Z"/><path class="cls-43" d="M245.33,47.77a.15.15,0,0,1,.12.1c.1.21.27.21.46.2s.21-.27.21-.27a.69.69,0,0,0-.35-.23,1.08,1.08,0,0,0-.32,0s-.28-.17-.38-.15c-.34.06-.55-.05-.56.08s.07.44.24.45S245.06,47.7,245.33,47.77Z"/><path class="cls-44" d="M252,47.52c0-.06.17-.3.13-.35a.31.31,0,0,0-.26-.16c-.15,0-.1.13-.16.15s-.19-.18-.38-.23-.33.61-.39.63a1.1,1.1,0,0,1-.81.23c-.53,0-.71.19-1.15,0a1,1,0,0,1-.58-.4s0-.19-.28,0c-.1.07-.32.06-.46.11s-.37.18-.44.16a9.5,9.5,0,0,0-1.37-.76c-.27-.07-.3-.16-.5-.26s-.42.14-1.29-.12c0,0-.18,0-.09.16,0,0,.5.34.55.36a6.09,6.09,0,0,0,1.21.34,2.15,2.15,0,0,1,1,.45c.08.1-.24.2-.26.26s0,.27.08.36.55,0,1,.09c.09,0,0-.15.08-.19s.19,0,.27.24.67.28.67.28a1.12,1.12,0,0,0,1,.24s.14.06.08.26.5.1.61,0a3.66,3.66,0,0,0,.42-.48c.15-.21.4-.38.45-.46s.53,0,.86-.11a.26.26,0,0,0,.15-.24A4.85,4.85,0,0,1,252,47.52Z"/><path class="cls-45" d="M255.43,48c-.22-.14-.21-.23-.2-.25h0c.05-.16,0-.21-.06-.23l-.3-.14a2,2,0,0,1-.85-.83,3.1,3.1,0,0,1-.39-.74c0-.15-.43-.3-.41-.13s-.15.38-.28.47l-.19.1c-.27.24-.31.11-.31.11-.43-.33-1.15-.34-1.07-.09a1.2,1.2,0,0,1,0,.39.22.22,0,0,0,.13.14c.08,0,.18,0,.27,0s.31.08.26,0-.13-.21-.13-.21.23.08.34.17,0-.07.09-.07c.44.09.74.5.66.58s.27.25.44.34a1,1,0,0,1,.77-.12c.13,0,.33.4.45.45a.42.42,0,0,0,.17,0h0S255.7,48.19,255.43,48Z"/><path class="cls-46" d="M257.42,48.08a.4.4,0,0,0-.23,0c-.39,0-.67-.05-.73,0s.53.2.75.22l.2,0c.17.05.48.13.51.09S257.61,48.19,257.42,48.08Z"/><path class="cls-47" d="M258.89,48.56a.84.84,0,0,0-.46-.07c-.06,0-.18.1-.09.16l.36,0c.18,0,.38.1.42,0S259,48.62,258.89,48.56Z"/><path class="cls-48" d="M256.43,42.41c-.1-.3-.1-.39-.49-.14s-.4-.16-.56,0a1.24,1.24,0,0,0-.31.91c.09.26-.6.89-.71,1s-.16.69-.54.79c-.14,0-.3.28-.07.37,0,0,.34-.12.89.34s-.15-.58-.13-.69a.48.48,0,0,1,.42-.44c.38-.08.47-.06.91.43s.1-.69.07-.93C255.85,43.5,256.53,42.72,256.43,42.41Z"/><path class="cls-49" d="M207.6,44.91a1.88,1.88,0,0,0-.34,1.42.72.72,0,0,0,1,.1c.59-.42-.1-1.12-.36-1.5A.17.17,0,0,0,207.6,44.91Z"/><path class="cls-50" d="M148.65,18.2c-.05,0-.06.09,0,.12a1.84,1.84,0,0,0,1.23,0l.08,0,.67-.25c.26-.11.27,0,.56-.08s.61-.49.24-.71c0,0-.12-.12,0-.21s.44-.13.49-.2-.3-.58-1.47-.34c0,0-.86-.1-.68.4,0,.05-.06.09-.14.1-.27,0-.93.08-.94.16s-.11.41.46.51c.14,0,.17.14.07.21S148.79,18.1,148.65,18.2Z"/><path class="cls-51" d="M153.64,14.73c.13-.09-2.13-.06-2.08.52a.85.85,0,0,1-.41,0c-.16,0-.17.09-.1.17a1.16,1.16,0,0,0,.41.14s0,.23,0,.29.35,0,.35,0a.69.69,0,0,1-.34.2c-.2,0,.19.15.36.14a2.53,2.53,0,0,0,.42-.1s.31.06.27.15-.41.08-.38.21.17.2.34.19a4.2,4.2,0,0,0,.63-.15s.36,0,.28.18.44,0,.43.33-.86.29-1,.24-.16.27-.16.27.46.06.36.16a1,1,0,0,1-.64.28c-.2,0,0,.2.16.19a4.67,4.67,0,0,0,.74,0c.18-.05.08.14,0,.14a1.73,1.73,0,0,0-.43.08c-.13.05-.37.38-.65.48s.09.09.09.09a1.51,1.51,0,0,1,.89-.15c.44.09.14-.1.51-.2a5.14,5.14,0,0,1,.79,0,.61.61,0,0,0,.43-.1.69.69,0,0,1,.7,0,2.26,2.26,0,0,0,1.29-.29c.11-.18-.29,0-.32-.09s-.24-.21.34-.27.51-.38.13-.46-.49-.17-.82.09c-.1.08-.24-.14-.24-.14s.2-.11.23-.22-.45-.19-.79-.52-.32,0-.72-.47a.44.44,0,0,0-.27-.14.8.8,0,0,0-.52-.06c-.38.12-.3-.14-.09-.17s.69-.38.71-.61-1.12.14-1.54,0S153.31,14.93,153.64,14.73Z"/><path class="cls-52" d="M150.84,14.94c-.29.13-.25.26-.16.26s.33,0,.37-.08.39-.19.32-.25A.78.78,0,0,0,150.84,14.94Z"/><path class="cls-53" d="M158.66,23.79c0-.07-.48-.2-.47-.14s-.28.11-.23.15.21.13.28.1S158.66,23.86,158.66,23.79Z"/><path class="cls-54" d="M162,23.31s.38.21.15.53.38.26.46.13.38-.16.42-.26.13-.73-.32-.75S162,23.11,162,23.31Z"/><path class="cls-55" d="M162.66,22.18c-.2.1-.21.18-.21.22s-.31.16-.11.28c0,0,.24.12.47-.2C162.8,22.39,162.88,22.08,162.66,22.18Z"/><path class="cls-56" d="M192.4,11.5s.21.31,1.14.1c-.06-.17-.54-.27-.72-.29C192.3,11.26,192.4,11.5,192.4,11.5Z"/><path class="cls-57" d="M196.81,10.09a.12.12,0,0,1-.15,0,1.31,1.31,0,0,0-.86,0c-.1,0-.18.16-.22.25a.13.13,0,0,1-.15,0c-.82-.27-.53.08-.53.08A11.08,11.08,0,0,0,199,11.86c.25-.14-.18-.16-.7-.43s-.58-.57-.53-.67.86-.3,2.5-.44a19.18,19.18,0,0,1,4.26.15,12.11,12.11,0,0,0,1.6.14c.23,0,1.83.34,2,.34s.65-.08.22-.28a8.67,8.67,0,0,0-2.41-.35,6.24,6.24,0,0,1-1.34-.1l-.24-.05a10.76,10.76,0,0,0-4.84-.56c-.18-.06-.87-.11-1.05-.17h-.07a2.19,2.19,0,0,1-1.42.38C196.89,9.85,196.83,10,196.81,10.09Z"/><path class="cls-58" d="M164.78,16c.59-.09.15-.34.15-.34-1.09-.17-.87.58-.57.62S164.36,16.08,164.78,16Z"/><path class="cls-59" d="M231.56,16.28a5.62,5.62,0,0,1-1-.34.82.82,0,0,1-.36-.32c0-.13-.19-.37-.3-.41a1.51,1.51,0,0,1-.61-.41,3,3,0,0,0-1.15-.31c-.13.07-.57-.23-.86-.25s-.31.11-.51.11a6.67,6.67,0,0,1-.81-.19s-.24,0,0,.24a5.18,5.18,0,0,0,1.23.51,1.63,1.63,0,0,1,.43.18c.19.12.42.28.39.35a8.38,8.38,0,0,0,1.62.65l.21.09a7.48,7.48,0,0,0,1.48.61.44.44,0,0,0,.36,0,.77.77,0,0,1,.34-.1C232.21,16.7,232,16.37,231.56,16.28Z"/><path class="cls-60" d="M231.74,17.36c.35.11.89.22,1.52.45a22.79,22.79,0,0,0,2.15.77c.74.2-.84-.84-1.34-1a4.26,4.26,0,0,0-2.36-.28C231.65,17.28,231.67,17.34,231.74,17.36Z"/><path class="cls-61" d="M267.05,37c-.07-.2-.94-.7-1.1-.79-.66-.41-1.33-1.26-1.58-1.1S266.46,37.16,267.05,37Z"/><path class="cls-62" d="M263.17,34.33c.17.08,0-.1-.1-.26a1.46,1.46,0,0,0-.45-.36,4.79,4.79,0,0,1-1.31-.91s-.6-.36-.7-.2-1-.79-1.33-1-1.19-.65-1.3-.45.4.79,1.06,1.1a10.38,10.38,0,0,1,1.91,1,3.75,3.75,0,0,0,.87.61C262.13,33.94,262.87,34.19,263.17,34.33Z"/><path class="cls-63" d="M260,33.64c.87.38,1.76,1.33,1.56.84a2.78,2.78,0,0,0-1-.91l-.24-.12C259.45,33.1,259.77,33.58,260,33.64Z"/><path class="cls-64" d="M260.15,33.26a.28.28,0,0,0-.17-.21s-.32-.16-.34-.12.11.22.24.27S260.13,33.28,260.15,33.26Z"/><path class="cls-65" d="M180,26.52a2.58,2.58,0,0,0-.78,0c-.29.12-.59,0-.5.19C178.72,26.74,179.07,27.21,180,26.52Z"/><path class="cls-66" d="M174.47,26.29s.05-.11-.16-.08a1.07,1.07,0,0,1-.55-.1,2.39,2.39,0,0,0-1.21-.14c-.1.09.1.2.81.29A2.06,2.06,0,0,0,174.47,26.29Z"/><path class="cls-67" d="M175.75,25.86c.05-.07,0-.16,0-.17s-.15,0-.19.11,0,.12,0,.13A.14.14,0,0,0,175.75,25.86Z"/><path class="cls-68" d="M286.94,57.25a2,2,0,0,1-.44-.52A21.1,21.1,0,0,0,284,53.4a27.52,27.52,0,0,0-5.54-5.17c-.26,0,.06.55.06.55a4.16,4.16,0,0,1-1.05-.58s.06-.29-.48-.7,0-.16,0-.16,1.27,1,.7.3-1.16-.65-1.7-1-3.38-2.65-3.7-2.79-1.22-.94-.68-.81-.18-.57-.19-.57c-1.27-.87-4.5-3-4.37-3.17S265.34,38,265.59,38s0-.21,0-.21c-5.87-4.38-6.07-3.92-6.05-4-.64-.36-.75-.61-1-.6s.32.78.32.78a25.79,25.79,0,0,1-2.55-1.48c0-.14-.35-.39-.51-.37a4.75,4.75,0,0,1-1.56-.83c-.16-.24-.23-.45-.42-.43a4.72,4.72,0,0,1-1.19,0,4.17,4.17,0,0,1-1.21-1.07c-.33-.46.29-.28.29-.28s.72.26,0-.44-4.33-2.8-4.27-2.48,0,.31,0,.31c-.46-.19-3-1.48-3-1.48s-.13-.37-.13-.37a23,23,0,0,0-3.42-1.54c-.27-.41-1.51-.63-1.67-.82s-.85-.57-.92-.48a5.63,5.63,0,0,1-2.09-.54c-.64-.33-.05-.2.17-.17s4.06,1,4.66,1.13.27-.36.27-.36a15.53,15.53,0,0,0-3.85-1.87c-.25,0-1-.34-.81-.36a1.26,1.26,0,0,0,.32-.1,6.56,6.56,0,0,1-1.66-.72c-.08-.13.77.13.77.13a6.92,6.92,0,0,0-2.68-1c-.93-.39-1.11,0-1.11,0a3.35,3.35,0,0,0-1.48-.38,3.69,3.69,0,0,1-1.39-.5,9,9,0,0,0-3.49-1.07c-2.44-.95-4.58-1-4.6-.88s.44.36.18.28a2.77,2.77,0,0,0-.73-.08s-2.2-.59-2.9-.87-1.31-.39-1.09-.17-.16.45.37.62,1.19.46,1,.56-1.12-.24-1.13-.24a7.55,7.55,0,0,0-2.4-1.18c-.43-.08-.71.13-1,.06s-.61-.13-.22.09.28.28.28.28c-.74-.11-1.42-.45-1-.53s.39-.24.39-.24c-1-.86-.91-.44-.91-.44.77.46,0,.44,0,.44-1.1-.35-1,.07-1,.07.81.44.6.62.6.62-.87.05-.38.59-.38.59.72.17.48.22.33.32s.1.44.08.51a5.31,5.31,0,0,1-2.57,0c-.86-.32-.46-.41-.46-.41,1.44.25,2.51-.31,2.07-.42a.89.89,0,0,1-.59-.43,1.7,1.7,0,0,0,.23-.89c-.36-.2-.25-.38-.25-.38.76-.12.71-.3.71-.3a5,5,0,0,1-.7-.26s-.34-.3-.34-.4-1.36-.36-1.6,0-1.23.36-1.23.36c-.71-.2-.82.06-.82.06s.46.26.27.27-.32.36-.32.36l.75.24s0,.23.12.26.64.3.61.41-.66,0-.66,0a15.72,15.72,0,0,0-4.13-1.68,15.91,15.91,0,0,1-2.33-.87c-.22-.07-.64,0-.27.15.85.26,1.9,1.06,1.47.88s-.6-.07-1,0a.39.39,0,0,1-.5-.2.32.32,0,0,0-.27-.13,5.71,5.71,0,0,0-.59,0,1.23,1.23,0,0,1-.5-.06,7.57,7.57,0,0,0-1.94-.26c-.17,0-.4-.17-.57-.31a1,1,0,0,0-.52-.2c-3.49-.32-3.22.06-4.06.23a2.18,2.18,0,0,1-1.57-.3,1,1,0,0,1-.57-.22c.16-.44,1.39.29,1.43,0s-1.44-.56-1.61-.69-1.49-.26-1,0,.3.47.49.78,0,.43-.16.47-1.3-.52-1.38-.3-.7.11-.7.11c-.86-.08-1.11.06-.91.31s0,.31-.17.27a13.53,13.53,0,0,0-2.17-.59c-.63-.07-.31.36.41.47s.48.14.33.24-2.68-.43-2.52-.7,0-.68-.25-.65a2,2,0,0,1-.72-.15c-1-.64-.05-.4-.05-.4,4.53,1.29,4.76.82,5.59.83s.31-.31.33-.42-3.38-1-3.83-1.2A7.48,7.48,0,0,0,181,10c-.86-.7-1.4-.38-1.4-.38s-1.37,0-1.36-.17.71-.22.71-.22a4,4,0,0,0-2.37-.47c-.18,0-.43.23-.43.23l-.21-.27-.47.14s-.2-.41-.26-.24-.7.15-.93.14-.68-.21-1-.14l-1.17.26a15.49,15.49,0,0,1-1.65,0,1.5,1.5,0,0,0-1.2.3.77.77,0,0,0-.64,0c-.15.33-.29.3-.29.3a4.57,4.57,0,0,0-2.65.12c-.37.14-.92.56.09.26s2.46.1,1.5.08-1.2.42-3,1.35a4.79,4.79,0,0,1-2,.71c-.36.2-.62.37-.62.37a2.05,2.05,0,0,0-2.2.57c-.57.66.33.81.33.81l-.08.26.31.08,0,.4a2.68,2.68,0,0,0,1.7.17,15.24,15.24,0,0,1,2-.63,5,5,0,0,1,1.5,1.76c.31.38,1,.21,1,.21s.36-.39.36-.39a1.66,1.66,0,0,0,.89,0,.69.69,0,0,0,.42-1c.86-.35.53,0,1-.34l.69-.46a5.36,5.36,0,0,1-1.1-.52c-.29-.94.93-1,.93-1,2.08-.3,2.24-.65,2.24-.65-.56-.88,2.52-.53,2.52-.53.88.54,0,.57,0,.57-1.25.55-2.66.77-2.76.94a.27.27,0,0,0,.16.4c.18.07,0,.34,0,.34s-.46.32,0,.31a9.24,9.24,0,0,0,2.14.25,15.9,15.9,0,0,1,3.44.15c1.07.13.61.27.61.27a3.31,3.31,0,0,0-1.4.15,11.67,11.67,0,0,0-2.9-.13c-.44-.13-.65.4-.26.41s.78.36.38.6-.42.13-1.2-.19-.9.16-1.08.23-.12.73-.12.73l-.48.11s-.77.29-1,.34-.64-.21-.64-.21-1.29,0-1.5.17a3.94,3.94,0,0,1-1.76.1c-.15-.08,0-.51-.44-.29s-1.73.46-1.73.31-.94-.4-.91-.55.64-.6.64-.6a.87.87,0,0,1,0-.51,2.52,2.52,0,0,0-1.47.29c-.47.38-.24.32.21.88s-.29.63-.29.63c-1.43-.05-.72.13-1,.12-1.26,0-1,.1-1,.25s.29.17.24.28-.19.19-.34,0-.24-.25-.31-.18a11,11,0,0,1-1,.77.57.57,0,0,1-.33.11,1.38,1.38,0,0,0-1.1.49.58.58,0,0,1-.37.2,1.49,1.49,0,0,0-.57.24.49.49,0,0,1-.3.1l-.4,0a.34.34,0,0,1-.25-.07.41.41,0,0,0-.42-.1c-.23.06,0,.22.12.31s.09.19,0,.24a2.23,2.23,0,0,1-.63,0s0-.17-1-.06-.38.35-.38.42,1.06-.1,1.39.11l1.22.77s-.14,1.33-.57,1.24a17.49,17.49,0,0,0-2.35.05h0c-.88,0-1.76.07-2,.08l-.15,0c-1.05.3-.6.49-.6.49a1.2,1.2,0,0,1,.15,1.54c-.16.08-.52.51,0,.49s.32.24.32.24-.39.69.15.48a3.18,3.18,0,0,1,1.11-.19,4.25,4.25,0,0,0,1.07.55c.67-.71,2.22-.47,2.21-.47.18-.33,1.83-1.09,1.58-1.15a.56.56,0,0,1-.32-.29,3,3,0,0,1,1.79-1.06c.62-.16.5-.47.5-.47s-.08-.66,1.07-.47a2.75,2.75,0,0,0,2.27-.32,1.42,1.42,0,0,1,1.54,0,5.42,5.42,0,0,0,1.05.83,7.62,7.62,0,0,1,.9.44.71.71,0,0,0,.32,0,1.12,1.12,0,0,1,.45.07c.52.21,1.71.76,1.5,1.11s-1,.4-1.19.39-2.1-.19-1.23.2,2,.59,1.89.44.07-.45.07-.45.64-.07.73-.25.4-.37.41-.46-.11-.14-.19-.2a.12.12,0,0,1,0-.21.75.75,0,0,1,.85.09c.11.17.37.1.37,0a1.49,1.49,0,0,0-1-.6,1.3,1.3,0,0,1-.65-.29.46.46,0,0,0-.28-.13c-1.09-.13-.79-.17-1.37-.62s-.77-.26-1-.75.52-.56.75-.52.42.87.54.42.8.11.8.11c-.07.58.61.58.61.58.18,0,2.65.83,2.5,1.05a1.13,1.13,0,0,0-.1.55.37.37,0,0,0,.23.3,3,3,0,0,1,.9.88c0,.35.78,1.22,1.14.82s0-.64,0-.64-.64-.16-.19-.22.52.29.94.35.21-.17.21-.17-.94-.87-1.08-.93,0-.49.26-.21.48.08.48.08c.11-.45,2-.36,1.81,0s0,.48,0,.48c.66.21.35.44.16.55s0,.09,0,.12a1.29,1.29,0,0,1,.55.46.37.37,0,0,0,.25.17c.42.11,1,.3,1.3.42a.54.54,0,0,0,.45,0,1.15,1.15,0,0,1,.68-.1,3.1,3.1,0,0,0,1.38.47c.23,0,.32-.09.59-.24a.72.72,0,0,1,.61,0,.61.61,0,0,0,.42,0c.2-.08.44,0,.41.12s-.26.11-.21.17a3.93,3.93,0,0,1-.09.73.4.4,0,0,1-.2.23c-.48.3-.72,1.33-1.43,1.43a3,3,0,0,1-1.52-.25c-.38-.28-1.19,0-1.5.12a.23.23,0,0,1-.2,0,13.34,13.34,0,0,0-2.49-.51l-.24-.19-.86-.07a.26.26,0,0,1-.13-.06,2.63,2.63,0,0,0-.69-.42c-.6-.28-2,.08-1.81.32s.15.25.06.58-.86.24-.86.24c-1.16-.61-2.24-.61-2.31-.82a.89.89,0,0,0-.82-.47,13.27,13.27,0,0,1-1.4-.05h0a5.57,5.57,0,0,1-.89-.44.16.16,0,0,0-.09,0c-.47,0-.47-.21-.47-.21.5-.23.66-.44.7-.56s0-.11-.09-.14a.54.54,0,0,1-.28-.33c0-.12.28-.21.28-.21-.17-.23-.25,0-.76-.21s-1.81.31-3.79.19a10.87,10.87,0,0,0-4.37,1,6.31,6.31,0,0,1-2.24-.12c-.12-.11-.42-.05-.42,0s-.59,1-1.06,1.09-1.47.66-1.36,1a3,3,0,0,1,0,.93.16.16,0,0,1-.06.08,9.5,9.5,0,0,0-1.22.93.21.21,0,0,1-.17.05c-.49-.06-.67.08-.72.13l0,0c-.33.79-.68.51-.8.94a3.93,3.93,0,0,1-.92,1.27c-.2.17-.09.65-.33.74s-.44.41-.21.55l.52.32a.09.09,0,0,1,0,.15.4.4,0,0,0-.09.38,1.82,1.82,0,0,1,.19,1.76c-.24.23-.49.39-.47.56s.55.21.48.29a3,3,0,0,0,.07.85,4.69,4.69,0,0,0,.75.16c.16,0,.07.19.08.32s1.48.68,1.56.79-.07.8.39.82a14.09,14.09,0,0,1,2.61,1.21,1.25,1.25,0,0,0,.81.06h0a6,6,0,0,1,3.35-.48.19.19,0,0,0,.13,0,9.53,9.53,0,0,1,1.75-.57l0,0a3.83,3.83,0,0,1,1.91-.31h0a1.87,1.87,0,0,1,1.06,1,.17.17,0,0,0,.13.08,12.86,12.86,0,0,0,1.69-.08l.08,0a4.62,4.62,0,0,1,.69.52.09.09,0,0,1,0,.13,1.19,1.19,0,0,0-.27.73,2.64,2.64,0,0,1,0,.91.13.13,0,0,1-.16.07c-.11,0-.12.05-.12.05,0,.19,0,.7,1.14,1.45a3.38,3.38,0,0,1,1.45,2.66.28.28,0,0,0,.07.37,1.26,1.26,0,0,1,.19,1.4l0,0a2.68,2.68,0,0,0-1,2.72,8.58,8.58,0,0,1,.88,1.42c0,.25.64.63.59.73s-.12.07.07,1.21a2.78,2.78,0,0,0,.47,1.4,4.15,4.15,0,0,1,1.09,1.69c.11.12.68.53.36.77s.06.34.06.34c-.13.5,0,.38.23.46s.25.22.56.27.39-.14.39-.14a3.71,3.71,0,0,0,.66,0c0-.11.34-.1.34-.1a9.77,9.77,0,0,0,1.78-.08H172l.52,0a.32.32,0,0,0,.17,0,5.16,5.16,0,0,0,2.09-1.36c.62-.86.3-.36.89-.87a1.86,1.86,0,0,0,.54-1.4.05.05,0,0,1,0-.05c.54-.34,1.32-.2,1.49-.48a5.15,5.15,0,0,0,0-1.66.08.08,0,0,0,0-.07c-.11-.08-.45-.37,0-.58a8.28,8.28,0,0,0,1.37-1,1.91,1.91,0,0,1,1,0h.07c1.52-.72,1.22-1.28,1.22-1.28a3.82,3.82,0,0,1,.07-1.82.11.11,0,0,0-.06-.12c-.67-.46-.46-1.49-.4-1.74a.1.1,0,0,0,0-.1.68.68,0,0,1-.22-.51v0c.05-.33.7-.88.87-1a.28.28,0,0,0,.07-.09l.12-.26a.34.34,0,0,1,.22-.16A2,2,0,0,0,183,45a8.07,8.07,0,0,1,1.51-1l.07,0a8.35,8.35,0,0,0,3.22-1.74.07.07,0,0,0,0-.06.47.47,0,0,1,.27-.48l.05,0c1.18-1,1.39-1.69,1.4-2a.15.15,0,0,0-.19-.12c-.65.1-3,.07-3.28.07H186c-.17,0-.94.15-.94,0s-.28-.42-.46-.58a.1.1,0,0,1,0-.18c.08,0,.15-.08.12-.17a7.85,7.85,0,0,0-1.56-1.4,4.84,4.84,0,0,1-.72-.51h0a1.26,1.26,0,0,1-.14-.78c.06-.51-1.11-1.09-1.22-1.25a7.07,7.07,0,0,1,.06-1.27c0-.19-.6-.51-.82-.62-.05,0-.08-.07-.07-.11s0-.51-.11-.57-1.25-2-1.53-2.43c0-.38.14-.35.14-.35.15.47.87.93.87.94a.35.35,0,0,0,.22-.27c.05-.22.25-.05.25-.05l.08.26c.43.15,1.32,1.52,1.32,1.52a.53.53,0,0,0,.32.55s1,.43.78,1.19a.82.82,0,0,0,.44,1c.3,0,.7.26.68.4a2,2,0,0,0,.51,1,2.93,2.93,0,0,1,.34.48.64.64,0,0,1,.07.4.82.82,0,0,0,.08.67,4.23,4.23,0,0,1,.09.93,2.66,2.66,0,0,0,.64.09,1.42,1.42,0,0,0,.62-.07,1.44,1.44,0,0,1,.25-.08l.65.08a.92.92,0,0,0,.6-.11.49.49,0,0,1,.29-.08h.67a4,4,0,0,1,1.7-.32.76.76,0,0,0,.6-.25.33.33,0,0,1,.21-.12,3,3,0,0,1,1.07,0,1.46,1.46,0,0,0,.76-.12,1.49,1.49,0,0,1,.5-.15.75.75,0,0,0,.31-.09,1.39,1.39,0,0,1,.47-.21.71.71,0,0,0,.52-.42l0-.06a.29.29,0,0,1,.24-.16,1.79,1.79,0,0,0,1-.55.44.44,0,0,0,0-.63,3.08,3.08,0,0,0-1.19-.76.82.82,0,0,1-.51-.46c.24-.7.06-.6.06-.6a3.77,3.77,0,0,1-1.8.61c-1,0-1.86-.32-1.61-.47s.17-.53.19-.64-.14-.19-.18-.11-.16.3-.56.22-.14-.62-.14-.62A3.18,3.18,0,0,1,189,30.68a.94.94,0,0,0,.54-.27c.18-.23.6.13.59.13a.39.39,0,0,1,.55.24s.38,1,.65,1.06a3.28,3.28,0,0,1,1.13.68,2.94,2.94,0,0,0,1.67.26c.8-.12.88.74.88.74a26.55,26.55,0,0,0,3.19.94,10.75,10.75,0,0,1,1.91.4,1.27,1.27,0,0,1,.92.21c.18,0,.41.43.41.43s0,.27,0,.4a1.15,1.15,0,0,1,.84.67l.44.14c.44,0,.52,0,.43.17s-.79,0-.79.06a1.63,1.63,0,0,0,.73.85,3.43,3.43,0,0,0,.73.17.37.37,0,0,0,.34-.39c.43-.39.41.16.41.16a4.72,4.72,0,0,0-.1,2.93c.49,1.39.09.9.52,2s.16,1,.39,1.67.57.71.74.67.3-.33.45-.31a1.77,1.77,0,0,1,.35.07h0l0-.16a.42.42,0,0,1,.37-.29.28.28,0,0,0,.25-.15c.09-.19.23-.48.25-.54s.27-.24.32-.4.46-1.21.46-1.21,0-.06.3-.07a9.42,9.42,0,0,0,1-.16,6.66,6.66,0,0,1,1.31-.37c.43,0,1.21-.38,1.38-.36s.31.06.48.07.38-.21.38-.21a.51.51,0,0,1,.63-.38,4.43,4.43,0,0,0,1.74.48,2.83,2.83,0,0,1,.83-.15,1,1,0,0,1,.28,1c-.06.1.68.86.68.86s0,.22,0,.33l.29.42s0,.86-.2.86-.15,0-.19.23.4.34.63.43a.25.25,0,0,0,.19,0c.16-.06.52,0,.62-.09a.35.35,0,0,1,.38,0c.09,0,.26.37.29.43s0,.4-.07.46a2,2,0,0,0,.1,1c.09.16-.16.64-.16.64a11.14,11.14,0,0,1-.57,1.24c-.43.32-.21.46-.21.46a5.17,5.17,0,0,1,.73,1.27.28.28,0,0,1,0,.22,1.41,1.41,0,0,0,0,1.21,2,2,0,0,1,.14.38,1.42,1.42,0,0,0,.06.22,1.18,1.18,0,0,0,.34.45,2.1,2.1,0,0,0,.75.65c.06,0,.46.19.23-.2a1.2,1.2,0,0,1-.14-.65c.1-.29.21-.52.29-.71s-.07-.26-.13-.39a4.63,4.63,0,0,0-.61-.94.85.85,0,0,0-.2-.17c-.13-.07-.34-.22-.35-.41s-.08-.62-.12-.85a.34.34,0,0,0-.14-.22.58.58,0,0,1-.1-.11.91.91,0,0,1,.14-.53c0-.08.31-.22.34-.31a.51.51,0,0,1,.25-.15.27.27,0,0,0,.11-.1c.07-.15.21-.46.24-.54s.18-.07.32-.06.24.27.24.27l.14.3a1.86,1.86,0,0,1,.82,1c0,.13.09.26.13.39a.42.42,0,0,0,.21.23l.2.1c.19,0,.43.42.42.49s0,.1-.15.16-.24.53.06.42a4.44,4.44,0,0,1,1-.12l.27-.21a4.72,4.72,0,0,0,1.3,0,.62.62,0,0,0,.48-.29,2.79,2.79,0,0,0,.34-1.18.81.81,0,0,0-.12-.47c-.59-1.1-1-1.2-1.09-1.88s.45-.8.45-.8a4.18,4.18,0,0,0,.91-.21c.26-.14.69.08,1.21.26s.35.5.27.53.2.58.3.33a.49.49,0,0,1,.36-.27c.57-.09,1.41.37,1.45.28s.59,0,.72,0a.43.43,0,0,1,.21.2l.36-.06a3.91,3.91,0,0,0,1,.4,5.65,5.65,0,0,0,2.5-.28c.19,0,.52-.41.52-.41l.32,0a6.71,6.71,0,0,0,.92-.23c.18-.08.41-.22.61-.3s.12-.27.14-.32-.68-.32-.71-.41-.12-.23.43-.11.47-.15.55-.33-.39-.69-.39-.69a.92.92,0,0,0-.28-1.17c-.35-.35-.05-.38-.05-.38a5.39,5.39,0,0,0,1.1-.06,1.35,1.35,0,0,1,.59.06c.8.24.68.1.71,0s-.37-.26-.57-.34a1,1,0,0,1-.34-.29.84.84,0,0,0-.71-.11.51.51,0,0,1-.53-.28c-.22-.54-.39-.37-.58-.84s.25-.34.24-.3a3,3,0,0,0,.48.22.38.38,0,0,0,.23,0,3,3,0,0,1,1.16,0s.67-.26,1,0,.15.34-.31.5-.07.4-.07.4a3.2,3.2,0,0,1,2.07.68c.09,0,.5.48.14.43s-.48.31-.51.37.82.47.82.47c.18.28.14.36-.1.45s.06.33,0,.48a.69.69,0,0,1-.41.3c-.2.07-.23.43.17.41a1.4,1.4,0,0,1,.78.23c0-.05.36,0,.36,0,.56.28.62,0,.62,0,.46-.31.34-.7.4-.88s-.6-1.08-.63-1.27.2-.32.2-.32a3.31,3.31,0,0,0,1.41.3.56.56,0,0,0,.34-.23.26.26,0,0,1,.25-.07c.86.19,1.06-.09,1.39,0s.35.21.46.44a2.83,2.83,0,0,0,1.87.61c.48-.14,2.21,0,2.57-.12a6.8,6.8,0,0,1,1.73-.12.84.84,0,0,1,.41-.24,4,4,0,0,1,.49-.77,1,1,0,0,0,.67-.12A.77.77,0,0,0,255,42c-.59-.42-.43-1-1.36-1.15s-.75-.33-.69-.42-.64-.22-.59-.32.09-.21,0-.3-.37,0-.64-.36.08-.26.08-.26c.95.47,2.68.33,3.25.5a5.42,5.42,0,0,0,1.33.22,2.91,2.91,0,0,0,1.13.24c.64.27,4.08,2.54,4.08,2.55a.91.91,0,0,1,.92.4,1.22,1.22,0,0,0,.3.24c.6.37.41.47.41.47-.46-.14,0,.29,0,.29.28,0,.8.35.8.35,1.32.86,1.51.81,1.51.81-.51-.35-.42-.44-.42-.44a11.19,11.19,0,0,1,2.52.44c.21,0,1.32.9,1.32.9,1,.54.39.53.39.53-.45.14.13.46.13.46,1.36.3,1.61.82,1.71.68a.64.64,0,0,1,.55-.12c.09,0,1.19.77.53.56a1.28,1.28,0,0,0-1.14.17,1.83,1.83,0,0,0-.65-.43c-.52-.11-4.52-1.08-4.52-1.07-1.13-.52-1.32.42-1.32.68a5.73,5.73,0,0,1-.24,1.43c-.06.18-.21.2,0,.39s1.17.33,1.31.13.45-.25.8,0a.47.47,0,0,0,.57.07c.17-.14.47.07.47.07s.14-.13.6.22.48.18.48.18c-.11-.17-.16-.51.2-.48a.71.71,0,0,1,.68.31c.26.28.4,0,.4,0s-.14,0-.21-.29.52-.09.52-.09c-.11-.32,0-.2-.48-.44s0-.34,0-.34c.6.22,1.26-.09,1.44,0s1,.71,1,.71a1.14,1.14,0,0,1,.69.64c.52.1,1.89.72,2,1.13a1.31,1.31,0,0,0,.49.64A16.35,16.35,0,0,1,279,53.61a9.05,9.05,0,0,1,2.2,1.67c.16.21.78.51.55.14a2.4,2.4,0,0,1-.24-1c-.44-.37-.77-1-.33-.69l1.57,1.11.26-.31h.13l.4.14a.47.47,0,0,1,.3.33l.05.23a.85.85,0,0,0,.32.5l.77.68a1.24,1.24,0,0,1,.31.38,6.16,6.16,0,0,0,.55.92s.66,1.1.76,1,.26,0,.44.1.35.11.37,0,.19,0,.19,0l.53.48a1.38,1.38,0,0,0,.45.26,1.89,1.89,0,0,1,.31.1c.06,0,.1,0,.06-.09A9.28,9.28,0,0,0,286.94,57.25ZM165.81,37c0-.14-.66-.71-.66-.71,0-.34.52-.17.52-.17s.42.29.42.38.67-.1.66.15S165.81,37.18,165.81,37ZM175.93,48s-.31.26-.38-.38a.48.48,0,0,0-.17-.31,1.75,1.75,0,0,1-.45-1.91s.09-.2.32.07,0,1.08.17,1.18a1.7,1.7,0,0,1,.35.66.38.38,0,0,0,.09.15C176,47.56,176.2,47.86,175.93,48Zm2.18,3a1,1,0,0,1-.43-1.2,1.94,1.94,0,0,0-.1-1c.06-.35.54-.25.49,0a1.26,1.26,0,0,0,.1.7.51.51,0,0,1,0,.41c-.29.71.12.66.1.89S178.11,51,178.11,51Zm.17-6.86a2.41,2.41,0,0,1-.41.61.69.69,0,0,0-.15.39c0,.14-.7.06-1,0a.17.17,0,0,1-.14-.15c0-.22,0-.83.09-1a1.21,1.21,0,0,1,1.59,0A.14.14,0,0,1,178.28,44.11Zm7-19.95-.79.16a8.5,8.5,0,0,1-2.09-.21l-.12,0c-2.19-1.06-2.65-.7-2.94-.73s-1.24.52-1.44.3-.89-.14-1.14-.13c-.05,0-.09,0-.1.06-.26.56-2.1.15-2.1.15a4.22,4.22,0,0,1,1.32-.27s.73,0,.32-.13a.69.69,0,0,1-.5-.54c0-.12.19-.26.19-.26a.54.54,0,0,1,.33-.24.45.45,0,0,0,.29-.28.55.55,0,0,1,.19-.31.21.21,0,0,1,.16,0c.11,0,.3.05.27-.1a.25.25,0,0,1,.26-.32.61.61,0,0,0,.47-.21c.19-.18.59-.1.79-.07s.39.47.78.28.62.19.41.21-.45.18-.36.17a1.36,1.36,0,0,1,.43.24A.08.08,0,0,1,180,22c0,.12-.11.41.19.23a2,2,0,0,1,1-.19c.18,0,.17-.23,0-.21s-.28-.17-.35-.26a.07.07,0,0,1,0-.11c.27-.18.76-.12,1.77-.24s1.15.06,1,.17-.57-.1-.61,0,.36.13.35.26-.49.18-.53.27-.14,0-.62-.07-1.08.13-.31.17.79.31.91.38a4,4,0,0,1,1.23.54,10.57,10.57,0,0,0,1.14.56C185.4,23.66,185.82,24.06,185.29,24.16Zm9,1.73c-.22,0-1-.23-1-.13s-.33,0,0,.3.51.53.47.71-.14.58,0,.73-.37.17-.37.17a3.12,3.12,0,0,0-.59-.06c-.19,0-.87-.12-1.09-.16a.33.33,0,0,1-.12-.05A5.34,5.34,0,0,0,191,27c-.16-.08-.61-.06-.64-.14a.75.75,0,0,1-.05-.81l0-.05a6.77,6.77,0,0,0,.65-.42.11.11,0,0,0,0-.18l-.36-.28-.05-.05a4.2,4.2,0,0,0-.91-.89.11.11,0,0,1-.06-.17c.09-.11.21-.28.17-.37s-.61-.29-.61-.42.51-.48.68-.6a.21.21,0,0,1,.12,0,3,3,0,0,1,.5,0,.21.21,0,0,0,.16,0,1.93,1.93,0,0,1,1.12-.15.22.22,0,0,0,.14,0,1.27,1.27,0,0,1,.79-.06c.33.14,1.38,0,1.67,1.23-.32,0-.41.12-.63,0a1.76,1.76,0,0,0-.8-.29.51.51,0,0,0-.46.2l0,.1a.27.27,0,0,1-.16,0,.88.88,0,0,0-.43,0c-.1.07.24.16.36.32s.38.48.36.58.66.21.66.21a.08.08,0,0,1,0,.11c0,.08-.54.16-.09.44.29,0,.36-.15.56-.13s.27.33.75.53A.17.17,0,0,1,194.25,25.89Zm5.18-.92s-.22.07-.25.24-.57.13-.75.12l-.12,0a7.23,7.23,0,0,0-.93-.29c-.12,0-.2-.11-.2-.19a.82.82,0,0,1,.69-.83c.76-.1.89,0,.94-.14s.45.09.77.15-.12.27-.09.39a.72.72,0,0,0,.39.38C200,24.84,199.83,25,199.43,25Zm10.95,1.74a3.1,3.1,0,0,0-1-.25c-.18,0-.65,0-.68.09s-.08.31-.42.26c0,0-.44-.22-.16-.53s1.73-.11,2.64.4C210.75,26.68,210.68,26.82,210.38,26.71Zm1.36.4c-.1-.05-.29-.14-.21-.19A.34.34,0,0,1,212,27S211.85,27.16,211.74,27.11Zm23,3.37c-.08.19-.31.36-.39.51a.25.25,0,0,1-.21.14c-.33,0-1,.13-1.21.18a1.65,1.65,0,0,1-.76-.16,1,1,0,0,0-.33-.06l-.72.05a4.83,4.83,0,0,1-1-.39c0-.08-.13-.22.13-.13s.45.12.62.16a1,1,0,0,0,.24,0c.41,0,1.73-.11,2-.1a6.34,6.34,0,0,0,1.32-.51C234.44,30.1,234.8,30.25,234.7,30.48Z"/><path class="cls-69" d="M170.41,4.24c.5,0,1,0,1,0a35.63,35.63,0,0,0,3.78.25,2.11,2.11,0,0,1,1.14-.15s.52-.1-.73-.27a51.51,51.51,0,0,0-6.13-.25l-.3.07a6,6,0,0,0-1.4,0c0,.11-.34.09-.34.09a5,5,0,0,1-.94,0c-.38-.06-2.36,0-2.36,0s-.34,0-.19.14a3.26,3.26,0,0,0,2.11.58s.33-.06.08.24,1.8.5,2.17.67.6-.4,1-.41.57-.43,1-.5a3,3,0,0,1,1.71.39s-.38.12-.29.18a7.3,7.3,0,0,0,2.62,0s0-.23-.83-.18L173.32,5,172.8,5l-.09-.1-.22,0a1.92,1.92,0,0,0-.59-.21l-1.31-.11S169.91,4.25,170.41,4.24Z"/><path class="cls-70" d="M191.67,5.43c-.56,0-1.08-.2-1.08,0a6.87,6.87,0,0,1,1.49.49,10.65,10.65,0,0,0,2.15.33s.12-.17.65-.08-.56-.29-1.45-.35S192.24,5.47,191.67,5.43Z"/><path class="cls-71" d="M197.81,6.76c0-.06-.31-.21-.63-.19s-.18.08-.18.08A4.39,4.39,0,0,0,197.81,6.76Z"/><path class="cls-72" d="M198,6.53a6.8,6.8,0,0,0,1.34.21C199.31,6.65,198,6.35,198,6.53Z"/><path class="cls-73" d="M200.71,7.4c.26,0,.58,0,.46,0a13.35,13.35,0,0,0-1.36-.31.69.69,0,0,0-.56.09A8.33,8.33,0,0,0,200.71,7.4Z"/><path class="cls-74" d="M201.16,6.91c.55.17-.54-.36-.62-.31a9.13,9.13,0,0,1-1.08,0s.1.44,1.11.43C200.57,7,200.61,6.75,201.16,6.91Z"/><path class="cls-75" d="M204.6,7.9c.59.12,1.33.31,1.52.18s-.38-.32-.7-.37-1,0-1.16,0l-2.1-.31s-.5-.2-.53-.05a5.53,5.53,0,0,0,1.88.58C204.25,7.9,204,7.77,204.6,7.9Z"/><path class="cls-76" d="M145,11.85s-.37,0-.45-.2c0,0,0-.05-.09,0s-.63.09-.61,0,0-.23-.78.1-.41-.15-2,.32l-.22.08c-.17.08-.48.23-.49.29s-.69.12-.69.07a.72.72,0,0,0-.72-.34,2.6,2.6,0,0,0-.92.23s-.42.25-.35.36,1-.2,1.17-.18.16.07.08.18-.67.18-.81.28.75-.08.79,0a1,1,0,0,0,.26.14s-.26.12-.21.23.12,0,.12,0,1.67-.33,1.81-.12,2-.31,2.38-.46a2.08,2.08,0,0,1,1.18-.27.45.45,0,0,0,.23,0l.8-.33C145.78,12.06,145.13,11.69,145,11.85Z"/><path class="cls-77" d="M141.51,7.59c.45-.11-.25-.11-.25-.11s-.22-.08-.3,0S141,7.72,141.51,7.59Z"/><path class="cls-78" d="M81.16,22.41c0-.15-.44,0-.58.11s-.66.4-.46.38C80.12,22.9,81.12,22.55,81.16,22.41Z"/><path class="cls-79" d="M79.6,23.65a2.54,2.54,0,0,0-.65.22,10,10,0,0,1-1.62.7,5.84,5.84,0,0,0-1.34.62c-.3.2-.51.2-.6.31s-.17.22.14.14c0,0,.58-.28.76-.35s.13,0,.37.09.37,0,.82-.29,1.06-.51,1.9-.93a.89.89,0,0,1,.48,0,.55.55,0,0,0,.24,0,4.1,4.1,0,0,0,.72-.38c.08-.1,0-.14.17-.21a2.74,2.74,0,0,1,.9-.4,3.62,3.62,0,0,0,1.36-.86s0-.09-.41.12a1.06,1.06,0,0,1-.25.09c-.33.06-1.23.28-1.43.75a.52.52,0,0,1-.13.17,3.36,3.36,0,0,1-.65.35h-.07l-.58-.08Z"/><path class="cls-80" d="M84.85,21.86c-.73.48-2.07.75-2,.94a9.34,9.34,0,0,0,2.68-1.18S85.58,21.39,84.85,21.86Z"/><path class="cls-81" d="M94.68,18.88a39,39,0,0,0-4,1.61,12.08,12.08,0,0,1-1.77.78,3.91,3.91,0,0,1-1.09.25,8.28,8.28,0,0,0-1.11.13c-.47.11-1.79.74-2,.78s-1.89.68-1.59.72c0,0,.29.17,1.62-.5s1.56-.47,1.59-.41.09.13,0,.26,0,.25.26.18.73-.2.94-.29,4.59-1.92,4.66-2a1.38,1.38,0,0,1,.76-.3,15.09,15.09,0,0,0,1.88-.71s.45-.23.39-.39S95,18.77,94.68,18.88Z"/><path class="cls-82" d="M85.1,23.26c.14-.2-.93,0-1,.1-.39.35-1,.54-.77.67A5.2,5.2,0,0,0,85.1,23.26Z"/><path class="cls-83" d="M76.69,25.79c-.11,0-.67.31-.57.36s.43.2,1.11-.31Z"/><path class="cls-84" d="M77.14,26.29a10.83,10.83,0,0,0,1.19-.12c.39-.08.84-.55,1.11-.65s.45,0,.62,0a9.37,9.37,0,0,0,1.85-.81c.15-.18.07-.19.09-.36a.22.22,0,0,0-.27-.25c-.16,0-.49.13-.86.25a6.24,6.24,0,0,0-1.56.78c0,.12-.27.2-.24.36s0,.1-.1.13a7.53,7.53,0,0,1-.84.2C77.2,25.94,76.81,26.29,77.14,26.29Z"/><path class="cls-85" d="M77.42,26.79c-.06.14.59-.13.55-.24S77.39,26.6,77.42,26.79Z"/><path class="cls-86" d="M82.07,26.59c.38.07.18-.14.63-.44a5.49,5.49,0,0,1,1.11-.59c.4-.17-.1-.58-.33-.4a3.27,3.27,0,0,1-.76.25c-.41.07.14-.38.31-.46s-.35-.15-.94.21a7.42,7.42,0,0,1-1.68.82c-.38.08-.5.26-.41.38s.21,0,.29.09-.16.31-.35.36-.7.23-.58.32a1.6,1.6,0,0,0,1.12-.25,1.11,1.11,0,0,1,.39-.16A4.82,4.82,0,0,1,82.07,26.59Z"/><path class="cls-87" d="M64,34.91c0,.08.07.06.07.06s.51-.15.48.17-.45.73-.46.89.49-.06.76-.27.57,0,.77-.1,1.16-.9,1.54-1.13.75-1,.94-1.21a23.11,23.11,0,0,1,2-1.54c.42-.23-.14-.19-1.21.24-.71.29-1.16.68-2.16,1.12s-1.33.71-1.28.79S64,34.83,64,34.91Z"/><path class="cls-88" d="M72.61,32.19c-.1.06-1.38.83-1.93,1.1s-.26.3-.28.36a2,2,0,0,0,.76-.18c.15-.08,1.28-.82,1.31-.7s.61,0,.82-.09l1.8-1.07.14-.09a7.24,7.24,0,0,1,.84-.55,9.26,9.26,0,0,0,1.11-.83c.15-.27.78-.47.78-.47a5.09,5.09,0,0,0,1.55-.47,2.51,2.51,0,0,0,1.21-.88.89.89,0,0,1,.26-.25c.53-.35.21-.4.21-.4-.71.37-1.25.45-1.8.71a2.37,2.37,0,0,1-.76.21.41.41,0,0,1-.42-.13c0-.07-.11-.14-.17-.13s-.75,0-.58-.15.32-.4.45-.57,0-.13-.1-.11a4.12,4.12,0,0,0-1.48.76,4.41,4.41,0,0,0-.56.7L75.7,29a1.92,1.92,0,0,1-.8.39,5.65,5.65,0,0,0-1.33.69.88.88,0,0,1-.24.11,6.7,6.7,0,0,0-1,.57c-.1.08-.09.21-.33.26s-.12,0-.22,0h0a1.9,1.9,0,0,0-1.11.59,2.41,2.41,0,0,1-.61.47c-1.33.75-1.54,1.53-1.54,1.53.06.16.55-.33.6-.15s.39.11.39.11a21.24,21.24,0,0,1,3-1.61C72.86,31.92,72.7,32.12,72.61,32.19Z"/><path class="cls-89" d="M68.43,31.6a8.65,8.65,0,0,0,2-1c.34-.45.53-.23.56-.19s-.41.39-.25.34a10.06,10.06,0,0,0,2-1.14,6.79,6.79,0,0,1,1-.84c.14-.15,2.31-1.22,2.51-1.32s.24-.57.06-.5-.51.26-1.1.57-1.29.23-1.65.43-.82.78-.42.57.48-.11.48-.11.16.08-.22.33a10.24,10.24,0,0,1-2.67,1A4.7,4.7,0,0,0,68.43,31.6Z"/><path class="cls-90" d="M69,30.06c-4.33,2.68-4.57,3.39-4.85,3.66,0,0,0,.07,0,.06a16,16,0,0,0,2.64-1.62c.32-.28.16-.42.44-.52s.39-.36.53-.42.17.36-.13.54-.59.52-.48.5.84-.52.84-.71.37-.46.37-.52,0,0,0-.07a1.74,1.74,0,0,0,.58-.37c0-.05-.1-.13-.07-.21L69,30.3C69.37,30,69,30.06,69,30.06Z"/><path class="cls-91" d="M70.1,29.26c-.07-.13-.75.28-.52.29S70.17,29.38,70.1,29.26Z"/><path class="cls-92" d="M71.47,28.4c-.33.2-1.13.74-.89.73a8.41,8.41,0,0,0,2-1c0-.1.32-.32.32-.32.19-.51.12-.18.45-.48s.12-.28.12-.28a9.9,9.9,0,0,0-2.75,1.45.26.26,0,0,0-.07.17c0,.1.33-.15.68-.33S71.8,28.2,71.47,28.4Z"/><path class="cls-93" d="M98,18.85a7.13,7.13,0,0,0-2.9,1c-.36.38.31.15.43.08s.45-.08.72-.22C96.78,19.38,98.28,18.9,98,18.85Z"/><path class="cls-94" d="M105.45,18.37s.27-.11-.38-.06c-.14,0-.11-.26-.4-.22a2,2,0,0,0-1.14.16.71.71,0,0,1-.28.06,6.67,6.67,0,0,0-2.92.51c-.08,0-.18,0-.2,0a.29.29,0,0,0-.35-.15,14.77,14.77,0,0,0-2.89,1,9.6,9.6,0,0,1-1.75.77c-.37.1-.79,0-.84-.23,0-.06-.1-.09-.19-.05a7.34,7.34,0,0,0-2.39,1.28.24.24,0,0,0-.1.16.46.46,0,0,0,.16.43c.23.15-.66.37-.72.31s-.45-.26-.25-.51S92,21,91.94,20.87c-.32,0-3,1.16-3.43,2.17,0,0-.21.44.45.31a2.4,2.4,0,0,1,1.26,0,47.76,47.76,0,0,0,4.86-1.67c.12-.08.76-.23.84-.1s1-.56,1.08-.74.52-.21.77-.15a2.61,2.61,0,0,0,1.09-.18c.21-.07.33.16.24.2s.11.12.45-.21.28.08,1.34-.12a.61.61,0,0,1,.27,0l.65.15c.06,0,.07.06,0,.11a4.65,4.65,0,0,1-.9.79.11.11,0,0,0,0,.21c.1,0,.19.1.09.17a13.17,13.17,0,0,1-2.12.85l-.15.05c-.2.12-.72.45-.69.55s.17.18.37.1,1-.43,1.23-.54a5.26,5.26,0,0,1,1.87-.48.5.5,0,0,0,.21,0,3.08,3.08,0,0,0,.52-.21,2.17,2.17,0,0,1,.92.24c.16.08,1.19-.37,1.42-.35a4.1,4.1,0,0,0,1.29-.15,10.21,10.21,0,0,1,1.07-.27l0,0s.15-.17-.21-.12-1.58,0-1.58,0-.42-.2.21-.32,1.2,0,1.49-.13,1.21-.22,1.34-.5c0,0,.2-.12-.18-.19a.83.83,0,0,1-.29-.11,1.43,1.43,0,0,0-1.07,0l-.13,0c-.2,0-.82,0-.82-.2a.08.08,0,0,1,0-.1h0s0,0,0-.05.26-.37,1.11-.3c1.15.09.84.14,1.15.09a1.47,1.47,0,0,0,.7-.4,5.35,5.35,0,0,0,1-.79s0-.08,0-.09a9.32,9.32,0,0,0-2.44.13A9.18,9.18,0,0,1,105,19S104.22,18.89,105.45,18.37Z"/><path class="cls-95" d="M99.73,21.32s.4-.24.31-.39-.66,0-.77.05a2.12,2.12,0,0,1-.35.15.71.71,0,0,0-.31.24l-.13.23c-.07.15.38.12.54,0A6.42,6.42,0,0,1,99.73,21.32Z"/><path class="cls-96" d="M96.68,24.23c0,.08-.57.14-.57.14a8.14,8.14,0,0,0-2.24.28c-.28.05-.67,0-.89,0a1.4,1.4,0,0,0-.54.5c0,.06.16.32,0,.34s-.08.06-.08.1.36.09.22.21l-.24.22c-.07.15.56-.17.56-.17s.18-.05.21.06.36,0,.58-.12.47-.52.72-.73a1.39,1.39,0,0,1,.85-.3c.85-.1,1-.08,1.26-.27C97,24.2,96.7,24.15,96.68,24.23Z"/><path class="cls-97" d="M94.89,25.88s0,.05.26-.1l.48-.35s.41-.29,0-.15A1.42,1.42,0,0,0,94.89,25.88Z"/><path class="cls-98" d="M97.38,24.9c-.06.17-.2.31.09.23s.51-.4.4-.4S97.45,24.74,97.38,24.9Z"/><path class="cls-99" d="M116.18,24.27c-.08-.05-.24.05-.68.3a8.67,8.67,0,0,0-1.32,2.06s-.28.36.35.13a18.83,18.83,0,0,1,2.14-.61c.25,0,.14.14,0,.28s.09,0,.24,0,.55-.63.87-.47a2.16,2.16,0,0,0,.54.2.23.23,0,0,0,.18-.06,2.51,2.51,0,0,0,.25-.27c.18-.22,0-.29,0-.29s-.28-.15-.36-.1c-.54.32-.24-.07-.11-.17s-.16-.05-.16-.05c-.35,0-.27-.14-.18-.2s.39-.26-.22-.17a11.32,11.32,0,0,0-1.29.35c-.1,0,0-.29-.14-.24s-.54.16-.42,0S116.27,24.32,116.18,24.27Z"/><path class="cls-100" d="M112.14,26.63c.37-.19-1.42-.15-1.55.06A1.67,1.67,0,0,0,112.14,26.63Z"/><path class="cls-101" d="M105.71,41.76c-.37,0-.58-.42-.64-.24,0,0-.07.21,0,.31s.49.06.51.13S105.92,41.79,105.71,41.76Z"/><path class="cls-102" d="M108.31,42.84a20.5,20.5,0,0,0-4.82.35,2.09,2.09,0,0,0-1.78,1.21s0,.24.27-.06a3.87,3.87,0,0,1,.83-.64c.22-.12.44,0,.53,0s.47-.19.75-.25a2.72,2.72,0,0,1,.69,0,.43.43,0,0,0,.19,0,1.67,1.67,0,0,1,1,0,.23.23,0,0,0,.18,0c.44-.25.57,0,.38,0s-.27.21-.15.24a8.93,8.93,0,0,0,1.78-.65C108.63,42.85,108.31,42.84,108.31,42.84Z"/><path class="cls-103" d="M102.76,44c-.09.06-.1.16,0,.21a.2.2,0,0,0,.25,0c.09-.06.07-.13,0-.19A.15.15,0,0,0,102.76,44Z"/><path class="cls-104" d="M107.24,44.28a1.82,1.82,0,0,0-.73.16c-.09.06-.37.1-.28.18a1.85,1.85,0,0,0,1.31-.24S107.66,44.21,107.24,44.28Z"/><path class="cls-105" d="M108.61,43.75a4.08,4.08,0,0,0,1.44-.42s.36-.14.42.1a.6.6,0,0,0,.35-.41s.18-.18.31-.09.16-.15.28-.2.41-.29.69-.21c0,0,.41,0,.37-.15s-.51-.07-.66-.08a2.17,2.17,0,0,1-.55-.15.47.47,0,0,0-.21,0c-.26,0-.81.11-1,.33s-.35,0-.57.11-.37.1-.39.21.2.1.36.16.12.16.19.19.34,0,.17.12a7.81,7.81,0,0,0-1.12.38C108.62,43.7,108.44,43.69,108.61,43.75Z"/><path class="cls-106" d="M113.61,42c-.06,0-.41,0-.4.14s.21.24.43.08.53-.18.46-.4S113.66,42,113.61,42Z"/><path class="cls-107" d="M109.05,42.23c0-.08-.33-.09-.39,0l0,.15C108.73,42.42,109.06,42.32,109.05,42.23Z"/><path class="cls-108" d="M111.9,28.3l.1-.06a.84.84,0,0,1,.28-.2c.14,0,0-.15-.23,0a2.58,2.58,0,0,1-.5.16.71.71,0,0,1-.25,0c-.17,0-.44-.07-.39,0A1.26,1.26,0,0,0,111.9,28.3Z"/><path class="cls-109" d="M128.07,73.53c-.29.31-.33,0-.41,0s-.39.07-.38.27-.28.31,0,.3c0,0,.24-.29.45-.15s.77-.4.78-.47S128.36,73.23,128.07,73.53Z"/><path class="cls-110" d="M117.93,44.63s-.12.26.07.24.24-.15.23-.21S118.06,44.59,117.93,44.63Z"/><path class="cls-111" d="M135.14,48.44a1.84,1.84,0,0,1-1-.15c-.55-.29-1.05-.6-1.36-.53l-.92.22a2.27,2.27,0,0,0-1.73.28s-.17.12-.18-.11-.3-.39-.79-.32a3.8,3.8,0,0,1-1.16-.12s-.37-.1-.45.23-.18.37-.24.34-.13-.09-.07-.26,0-.28-.14-.27-.79.11-.9.27,0,.28,0,.33-.42.31-.58.07-.17-.26,0-.43.78-1.17.21-1.05c-.13,0-.19-.26-.41-.58a1,1,0,0,0-.61-.43,4.07,4.07,0,0,0-3.11.09,1.14,1.14,0,0,1-.25.06h-.09a.53.53,0,0,1-.33,0,1.15,1.15,0,0,0-.42-.16,1.53,1.53,0,0,1-.58-.19,1.4,1.4,0,0,0-.94-.21.87.87,0,0,1-.76-.25c-.11-.13-.36-.14-.66-.06a.82.82,0,0,1-.6,0l-.06,0a.65.65,0,0,0-.73,0l-.15.13a1,1,0,0,1-.5.34,1.54,1.54,0,0,1-.57.07A2.41,2.41,0,0,0,114,46c-.05,0-.28.14-.33,0s-.23-.33-.75-.17a.33.33,0,0,1-.45-.21c-.12-.35-.15.47-.32.62s-.48.32-.45.4a1.18,1.18,0,0,0,.53.38s.1.37-.14.38-.42,0-.51-.27,0-.51-.17-.69.24-.34.24-.39-.16-.27-.29-.19-.64.76-.72.85A1.69,1.69,0,0,1,110,47s-.1.13-.09.16-.49.12-.54.35-.21.34,0,.62A1.17,1.17,0,0,0,109,49s.21.13-.78-.13a1.69,1.69,0,0,0-.91-.07h0c-.29.07-.59.5-.92.79s-.49.17-.49.17a3.71,3.71,0,0,1-1.38-.29c-.22-.07-.5-.32-.42-.44a10.23,10.23,0,0,0-.18-1.33.29.29,0,0,0-.21-.35c-.15,0-.28,0-.45-.08s-.77-.06-1.52.47a2.75,2.75,0,0,1-1.44.57c-.17,0,0-.31,0-.44s-.09-.55-.12-.62.3-.15.28-.39-.4-.68-.29-.87.36-.62.26-.65a2.5,2.5,0,0,0-.92.19c-.37.14-.39.37-1,.58-.39.13-.38.25-.33.31a.4.4,0,0,1,.1.15,1.32,1.32,0,0,1-.3,1.36.34.34,0,0,1-.28,0s-.2,0-.29.08a3.18,3.18,0,0,1-.54.54,1.78,1.78,0,0,1-.8.26,2.84,2.84,0,0,1-2-.38c-.1-.14-.26-.26-.28-.3s-.3,0-.43-.16-.13-.47-.28-.63-.09-.7,0-1a.88.88,0,0,0-.29-.55.51.51,0,0,1-.07-.57c.31-.68,1.11-1,1.16-1.23s.13-.21.22-.36a1.9,1.9,0,0,1,.94-.41c.27,0,.48-.17.45-.19s0-.09.21-.16.41.06.58.11a5.68,5.68,0,0,0,1.25-.51c.17-.08.13-.22.06-.17s-.19,0-.29,0-.22-.07-.1-.12.12-.11.07-.11-.14-.11-.19-.19.4-.27.72-.38.53-.14.64-.18.12-.13.43-.27a1.51,1.51,0,0,1,.84,0c.12,0,.19,0,.48-.26a1.12,1.12,0,0,1,.51-.24,1.74,1.74,0,0,1,.84.26c.12.11.11.3.24.46s.49.27.64.42a1.38,1.38,0,0,0,1.16.24c.3-.17,0-.64-.27-1.12s-.66-.38-1-.86a.81.81,0,0,1-.08-1.11c.2-.13.71-.89,1-1.2s.61-.47.69-.62a6.61,6.61,0,0,1,1-1c.18-.13,0-.14,0-.36s-.23-.14-.36-.2-.12-.28-.29-.41a1.21,1.21,0,0,1-.32-.5c0-.09,0-.08.14-.11s.13.23.17.32.25.12.25.12c.12.46.25.36.25.36.41-.75.14-.82.14-.82-.46-.16-.1-.17-.1-.17a.28.28,0,0,0,.34-.16,3.38,3.38,0,0,1,.29-.76c.21-.31,1-.56,1.12-.75a.76.76,0,0,1,.53-.4c.22,0,.51-.22.5-.3s-.09,0-.34-.2.39-1.07,1-1.31a3.47,3.47,0,0,0,.94-.54c.15-.08.15-.26.31-.33a8.88,8.88,0,0,0,1-.48c.13-.1.19-.1.27-.06s0,.27-.44.54-.15.36-.09.41.5.06.59-.09a2.38,2.38,0,0,1,.63-.64c.22-.11.74-.38,1-.49l.84-.38c.15-.08.19-.28.44-.4s.51-.35.3-.33a.34.34,0,0,1-.31-.09c-.33-.43-.59.09-.59.09s-.07.64-1.23.89a2.82,2.82,0,0,1-1.07.07.43.43,0,0,1-.38-.36c0-.33-.17-.32-.41-.17s-.79.16-.36,0a4.59,4.59,0,0,0,.77-.42c.44-.27.2-.31.2-.31a4.53,4.53,0,0,0-3,1.3c-.28.17-1,1.16-1.07,1s.64-.88,1-1.32a1.49,1.49,0,0,1,.94-.5c.1,0,.06-.2.06-.2.45-.59.48-.45.62-.54s3.87-1.12,4.42-1.42.56-.61,1-.8a7.2,7.2,0,0,1,1-.37l0,0c.71-.39.53-.27.53-.72s-.54-.3-.87-.27a.63.63,0,0,1-.4-.09.86.86,0,0,0-.43-.15,1,1,0,0,0-.3,0,5.5,5.5,0,0,1-2.52,0c-.55,0-.26-.21-.26-.21.26-.11.17-.25.17-.25-.52,0-2.67-.77-2.92-.73s-.19.17-.22.32a1.35,1.35,0,0,1-.41.67,2.18,2.18,0,0,1-1.27.66c-.06-.06-.16-.16-.47-.1s-.64.07-.73,0,0-.91-.47-.7a3.54,3.54,0,0,1-.57.22,2,2,0,0,1-.84.07c-1.67-.23-1.92.11-2,.24a2.82,2.82,0,0,1-1.16.36,3.21,3.21,0,0,0-1.36.46c-.49.29-.28.33-.12.3s.5,0,.45.17-.32.45,0,.39a.44.44,0,0,1,.52.28c0,.16-.29.39-.29.39-.94.45-.44.43-.44.43,1.07-.23,1.18.07,1.47.21a.41.41,0,0,1,.2.6c-.82,1.22-1.93,1.21-1.54,1.29s.45.13.48.21,0,.3.17.45.47.27.33.36a7.24,7.24,0,0,0-.6.5.68.68,0,0,1-.6.17,10.75,10.75,0,0,0-1.39-.12c-.08-.06-.29-1-.49-1a5.09,5.09,0,0,0-1.47.54,5.46,5.46,0,0,1-.87.27,22.68,22.68,0,0,1-3.18.53c-1.61.21-1.32.69-1.68.66s-.71-.47-.86-.48a9.37,9.37,0,0,0-1,.37c-.28.09-.4-.22-.4-.22-.42-.68,1.12-2.17,1.24-2.3a1.54,1.54,0,0,1,.37-.22,1.09,1.09,0,0,0,.58-.53c.3-.67.64-.55,1.35-1A2,2,0,0,0,92,24.84c0-.1.18-.29.52-.37A6.79,6.79,0,0,0,94.15,24c.83-.35.84-.76,1-.85s.59-.53.16-.35-.75.17-.81.08.22-.33.44-.46.49-.53,0-.3a2.63,2.63,0,0,1-1.23.26,5.52,5.52,0,0,0-1.61.67c-.15.11.44.5.19.64a1,1,0,0,0-.45.42c0,.09-.36.65-.69.57a2.21,2.21,0,0,0-.65,0c-.19,0-.14-.21-.1-.35s-.83-.29-.88,0-.32.31-.48.48-1-.14-1.4.06-.37.07-.4,0,.47-.16.39-.28-.72-.06-1.07,0a2.31,2.31,0,0,1-1,0c-.11-.06-.06-.35.07-.47A14.68,14.68,0,0,1,87,23.53a2.55,2.55,0,0,0,.86-1,28.82,28.82,0,0,0-2.8,1.15s-1.36.55-.76.71a.83.83,0,0,1,.52.4c.07.14,0,.34-.23.48-.55.36-.54.85-.45.9a5.19,5.19,0,0,0,1.38-.25c.21-.1.52-.21.5-.09s-.49.45-.26.38.23,0,.23,0a3,3,0,0,1-.73.74.26.26,0,0,0-.11.14.34.34,0,0,1-.28.23c-.34.06-.64,0-.69-.08s.29-.27.6-.44.26-.27.26-.27a3.42,3.42,0,0,0-1.78.34,1.61,1.61,0,0,0-.63.8c.06.06.66-.3.76-.26s.08.07-.09.13-.16.17-.16.17a1.54,1.54,0,0,0-.08.41s0,.08-.09.1A16.77,16.77,0,0,1,78.06,30a9.44,9.44,0,0,0-1.79,1.09c-.34.26,0,.2,0,.23s.49-.26.5-.15a2.38,2.38,0,0,1-1.17.65,3.11,3.11,0,0,0-1.05.52c-.1.06-.14.13-.14.18s-1.95,1.07-2.4,1.33-.32,0-.27-.1.53-.3.47-.41-.82.22-1,.29a27.64,27.64,0,0,1-3.45,1.67,3.28,3.28,0,0,0-1.77,1,1.88,1.88,0,0,1-.58.42c-.18.11-.46-.17-.54.08s-.63.81-.86.81-1.48.11-1.58.44-.15.25-.17.39-.38.25-.66.42-.3,0-.6.27a11.19,11.19,0,0,1-1.54,1.43c-.84.63-1.77,1-1.71,1.3a.47.47,0,0,1-.11.43.29.29,0,0,1-.12.07,27.23,27.23,0,0,0-5.41,3.09c-1.6,1.06-3.52,2.41-4.44,3.08a6.5,6.5,0,0,1-.86.54,19.4,19.4,0,0,0-2.83,2c-.45.38-2.48,2.63-3,3.16a3,3,0,0,0-.62,1.07,2,2,0,0,1-.49.75,5.33,5.33,0,0,1-.78.71c-.27.15-1,1,0,.42s2.13-1,2.44-1.31,1.06-.36.51.18a2.94,2.94,0,0,1-1.22.81c-.53.21-1,1.11-1.33,1.46a1.67,1.67,0,0,0-.56.82c0,.16.68-.51.78-.47s.61-.19.67-.23.79-.67,1.17-1a7.68,7.68,0,0,0,1.17-1.18c.3-.43.66-.26.81-.28s.17.31,0,.46-.61.32-.73.61-.34.64-.58.69-.52.35-.5.41-.35,1-.35,1.05-.36.61,0,.38A3.26,3.26,0,0,1,43,59.28c.1.08.36-.2.79-.75s.74-.31.73-.17.22.14.49-.24a3.13,3.13,0,0,1,1.14-.88c.09,0,.26-.09.42-.31s.58-.59.84-.47-.19.84-.24,1-.55.48-.55.66-.21.4-.31.61-.55.55-.61.73a19.08,19.08,0,0,1-1.13,1.67c-.25.32-.58.83-.09.35a45.76,45.76,0,0,0,3-3.74c.39-.65,1.64-2.58,2-3s.17-.54.17-.54l-.24.15c-.1.07-.28,0,0-.27a2.41,2.41,0,0,0,.45-.8,2.59,2.59,0,0,1,1-1.42c.23-.17.41,0,.13.09s-.21.3-.41.65a.45.45,0,0,0,.08.61s.39-.26.54-.43.6-.9.69-.94a3.58,3.58,0,0,0,.59-.58.16.16,0,0,0,0-.12.56.56,0,0,1,.27-.53c.32-.25.74-.53.74-.53a.84.84,0,0,1,.26-.13,3.83,3.83,0,0,0,1.38-.61c2.73-2.07,2.32-1.42,3.2-1.9a10.38,10.38,0,0,1,2.25-.72c1-.32,1.43.23,1.38-.06s-.52-.44-.63-.6,0-.52.3-.16.46.4.47.3.23-.36.19,0,.13.14.51.16,1.44,0,1.43-.19-.37-.16-.52-.17-.46-.19,0-.26,1,.18,1.09,0,.45-.37.49-.26-.34.65.12.46a5.14,5.14,0,0,1,2.28-.21c.14.17.66,0,.66,0a8.83,8.83,0,0,1,2.21-.65A2.12,2.12,0,0,1,72,44.92c.49.17.08.42.08.42s-.61,0-.75-.1a12.1,12.1,0,0,0-3.14.74c-.52.26-1.09.7-.23.37a11.28,11.28,0,0,1,2.58-.56c0,.05,0,.19.38.26a1.62,1.62,0,0,1,.86.56c.2.21.54.88.42,1.07s-.1.51.12.54.57.14.52.33-.12.69.06.55a.59.59,0,0,1,.58,0c0,.06,0,.2.25.3a1.25,1.25,0,0,0,.89-.1c.17-.1.15-.09.13.21s.46.1.46.1l.17.23a.06.06,0,0,0,.07,0,5.45,5.45,0,0,1,.89,0,.05.05,0,0,1,.06,0c.1.29.62,0,.62,0,1.87-.73,1.78-.3,2.25-.17a11.59,11.59,0,0,1,1.4.55.83.83,0,0,0,.45.06,5.59,5.59,0,0,1,1,0c.11,0,.31.09,0,.25S82,51,82,51c.29.18.62,0,.94-.08a2.54,2.54,0,0,1,.94,0,0,0,0,0,1,0,0c.17.51.29.39.29.39a4.55,4.55,0,0,1,1.57.13c0,.05.43-.43.18-.44L85,51h0a6.74,6.74,0,0,0-2-.78c-.69-.2-1.4-.15-1.72-.32a.82.82,0,0,1-.37-.57.1.1,0,0,1,0-.07A1.39,1.39,0,0,1,82.17,49a2.86,2.86,0,0,0,1.16.52,1.55,1.55,0,0,0,.48,0,1.53,1.53,0,0,1,.64,0,2,2,0,0,0,.51.08.63.63,0,0,1,.54.31h0s.14,0,.5-.06a29.17,29.17,0,0,1,2.9.56c.29,0,.36.22.23.33s-.1.17.12.46a.45.45,0,0,0,.49.12,1.16,1.16,0,0,1,.49,0,3.47,3.47,0,0,0,.45.06,1.18,1.18,0,0,0,.57-.11l.16-.07a1.26,1.26,0,0,1,.56-.1,10.67,10.67,0,0,0,2.91-.43,2.19,2.19,0,0,0,1.1-.49,1.72,1.72,0,0,1,1.34-.47c.48,0,1.06.14,1.34.19a.55.55,0,0,0,.3,0,1.68,1.68,0,0,1,.77-.16,3.72,3.72,0,0,0,1.24-.2.67.67,0,0,0,.28-.21c.17-.19.43,0,.46.12a1.38,1.38,0,0,0,.88.26c.36,0,.52.09.5.18s0,.46.28.33a1.72,1.72,0,0,1,1.26.06.46.46,0,0,0,.42.12c.76-.33.59-.14,1.08-.17s.59,0,.67-.06.22-.29.08-.23-.35,0-.22-.12a1.47,1.47,0,0,0,.3-.32c.21-.38.44-.41.57-.39l.12,0a.81.81,0,0,1,.35.27.82.82,0,0,0,.46.29.67.67,0,0,1,.48.42,4.69,4.69,0,0,0,.41,1,.06.06,0,0,1,0,.06,1.72,1.72,0,0,0-.13.46s0,.07-.1.11a.57.57,0,0,0-.31.38,2.68,2.68,0,0,0,0,.45.1.1,0,0,1,0,.07c-.14.1-.58.46-.36.88a.8.8,0,0,0,.28,1.27s.19-.05.22-.11.18,0,.09.18a3.93,3.93,0,0,0-.52.87c0,.11.21.25.37.49a.77.77,0,0,0,.49.29,1.33,1.33,0,0,1,.66.25c.21.24.68.2.71.26a4.4,4.4,0,0,0,.69.74,5.88,5.88,0,0,1,1.74,1.36c.3.55,1.46.27,1.87.36s1.11,0,1.65.2a.69.69,0,0,1,.45.36,8.12,8.12,0,0,1,.64,1.8,10.71,10.71,0,0,0,.29,1.46,3.63,3.63,0,0,1,.11,1,3.52,3.52,0,0,0,0,.71,4.25,4.25,0,0,0,.39,1.5,1.07,1.07,0,0,1,.14.49,4.85,4.85,0,0,1-.21,2.1.34.34,0,0,0,.09.51s.38.52.31.61a1.48,1.48,0,0,0,.15,1.12.36.36,0,0,1-.12.2c-.08.06.14.87.31.63s-.12-.5,0-.85.35,0,.39.06a9.56,9.56,0,0,1,.17,1.47c0,.16-.18.23-.21.13a.93.93,0,0,1,0-.49c0-.24-.38,0-.38.2s.15.84-.13,1.22.36-.14.62,0c0,0,0,.24,0,.3s-.15.19-.36.25.22,1,.33,1,0,.26.08.32.11-.21.26-.21-.12.42-.1.48a.12.12,0,0,0,.2,0c.09-.09.22-.15.24-.1s0,.14-.12.19-.15.18-.07.18a4.1,4.1,0,0,1,.49,0c.08,0,.62.06.58.13s0,.12-.11.1-.39-.07-.36,0,.77.15,1,.29a2,2,0,0,0,1.27.07.65.65,0,0,1,.24,0,1,1,0,0,0,.33,0c.2-.06.3-.13.46-.06s.09-.22.13-.24a9.91,9.91,0,0,0,1.14-.44c0-.08.15-.11.13-.15s.08-.14-.08-.13a5.1,5.1,0,0,1-1.12,0,1.53,1.53,0,0,1-.72-.29c-.09-.08-.25-.12-.52.07-.48.35-.34.38-.34.38s.07.15.29.06,0,.23-.09.25-.39.15-.42-.12,0-.63.91-1a.1.1,0,0,0,0-.13c-.08,0-.38-.13-.41-.22a.65.65,0,0,1,.25-.64c.31-.28.23-.47.23-.47a2.15,2.15,0,0,1,.66-1s.15-.29-.11-.28a2.1,2.1,0,0,1-.82,0c-.33-.11-.1-.86.24-1s.39-.12.38-.18.15-.24.15-.24a2.11,2.11,0,0,0-.1-.4.31.31,0,0,1,.18-.37c.2-.11.5-.26.49-.34s-.2-.19-.28-.17l-.25.12s-.39-.14-.42-.23,0-.33,0-.36a.38.38,0,0,1,.39,0s.88-.18.92-.38-.13-.45-.07-.53,0-.31-.12-.38.15-.15.22-.12a4.35,4.35,0,0,0,1.14-.4,3.49,3.49,0,0,0,1.2-1.17s.13-.21-.11-.34-.35-.15-.4-.44-.36,0-.76-.28c0,0-.17-.29.22-.2a1.35,1.35,0,0,0,.48,0c.11-.06.18,0,.26.06A3.71,3.71,0,0,0,128.1,65a2.92,2.92,0,0,0,.76-1.25c0-.14.17-.3.21-.31a3.08,3.08,0,0,0,.64-.8,4.47,4.47,0,0,1,.65-1.4,1.76,1.76,0,0,0-.07-.9,1,1,0,0,1,.16-.76c.22-.34.55-.79.82-.88a2.12,2.12,0,0,0,.91-.62,10.63,10.63,0,0,1,1.34-.35c0-.08,0-.13,0-.21s.41-.21.5-.37-.1-.21,0-.42a2.22,2.22,0,0,1,.39-.74.79.79,0,0,0,.19-.45,12.72,12.72,0,0,0-.16-2.43.66.66,0,0,1,.13-.5,5.87,5.87,0,0,0,.37-.59,3.85,3.85,0,0,1,.47-.74,4.74,4.74,0,0,0,.83-1.27,2.12,2.12,0,0,0-.15-1.1A.89.89,0,0,0,135.14,48.44ZM69.35,36.57c-.15.12.13.18.13.18a1.74,1.74,0,0,1-.48.47c-.29.19-.16-.13-.18-.17a.87.87,0,0,0-.59.48c0,.28-1,.83-1,.74s-.18-.2.27-.53.73-.66.55-.6a10.73,10.73,0,0,0-1.57.94c-.18.07-.82.33.15-.34s1.67-1.31,2-1.56.56-.32.63-.28-.4.37-.5.58,1.16-.67,1.24-.71.37-.39.45-.06S69.5,36.45,69.35,36.57Zm7-2.09a2.48,2.48,0,0,0-1,1,.34.34,0,0,1-.17.14,1.36,1.36,0,0,0-.62.49l-.06.07c-1.2,1.13-1.92,1.14-1.92,1.14-.36,0,.5-.44.58-.48s.13-.29.13-.29.69-.42.2-.3-.34-.09-.34-.09c.57-.45.91-.4,1-.38A1.94,1.94,0,0,0,75.3,35c.29-.53.56-.47.9-.71S76.92,34.14,76.33,34.48Zm2.07.79a1.49,1.49,0,0,0-.67.33,6.79,6.79,0,0,0-.6.59c-.11.18-.46.15-.36,0a5.35,5.35,0,0,0,.68-.72,2.4,2.4,0,0,1,1.23-.57C79.38,34.68,78.59,35.22,78.4,35.27ZM83.19,34s0,.09-.1.24-.23.11-.34,0a.38.38,0,0,0-.11-.38c-.19-.16.24-.53.24-.53s.34-.14.43,0S82.84,33.69,83.19,34Zm3.55,1.67a2,2,0,0,0-1-.14.56.56,0,0,1-.36-.17.18.18,0,0,0-.19,0c-.14,0-.34.09-.33,0s0-.25.31-.29.49-.09.79.25c0,0,0,.08.61-.17a.23.23,0,0,1,.21.19.12.12,0,0,0,.12.07c.14,0,.35,0,.35.15S86.94,35.85,86.74,35.71Zm1.33-.58s-.17,0-.17-.33c0,0,0-.13-.37,0-.1,0-.15-.07-.21-.14s-.36.15-.41.15a2.4,2.4,0,0,1-.94-.19s-.34-.37.53-.57a.47.47,0,0,1,.16,0,1.57,1.57,0,0,1,.71.23,2.54,2.54,0,0,0,1,.32S88.63,34.86,88.07,35.13Zm12.84-1.64s0-.39,1.58-.91c0,0,.37-.16.42-.34s.33,0,.3.13a1.22,1.22,0,0,1-.61.53,4.9,4.9,0,0,0-1,.38C101.17,33.55,100.85,33.61,100.91,33.49Zm.42.14c.1-.06.14.09,0,.13s-.78.58-1.29.94a3,3,0,0,1-1,.48c-.2.07-.25-.09-.17-.18a2.47,2.47,0,0,1,.58-.24l.13-.07c.12-.09.13-.17.25-.31s.57-.2.74-.35A2,2,0,0,1,101.33,33.63Zm-4.07-.1s.13,0,.22-.21a6.3,6.3,0,0,1,2-.73.23.23,0,0,1,.14,0,4.85,4.85,0,0,1,1,.18c.1.08,0,.26-.23.31a2.59,2.59,0,0,1-.68.06c-.11,0-.38.25-.19.8,0,0,.12.17-.36.28-.25.06-.33,0-.36-.22s-.44.19-.57.35-.27,0-.15-.21.17-.44,0-.45-.81,0-.87.06-.87.69-.83.9a1,1,0,0,0,.21.62c.2.26.19.46.08.57s-.12.4-.59.46-.55-.21-.58-.44a2.68,2.68,0,0,1,0-.67c0-.14.06-.15,0-.2s-.21.06-.32,0S95.18,34.23,97.26,33.53ZM92.11,35.2a10.68,10.68,0,0,1,.89-.87,8.66,8.66,0,0,0,1.24-1.19c.08-.16.35,0,.42-.08l.45-.19a.55.55,0,0,1,.4,0,.87.87,0,0,0,.43.06c.27-.05.82-.15,1,.29,0,0,0,.11-.29.15a1.49,1.49,0,0,0-.7.38c-.14.1-.71.45-.83.39s-.63.25-.68.14,0-.3-.24-.12-.7.49-.86.66-.49.19-.67.27S92,35.52,92.11,35.2Z"/><path class="cls-112" d="M50.6,54.1c-.11,0-.17-.21-.26,0a9,9,0,0,1-.77,1.24c0,.19.29.09.54-.13a2.41,2.41,0,0,0,.63-1A.15.15,0,0,0,50.6,54.1Z"/><path class="cls-113" d="M43.62,62.62a1,1,0,0,0-.4.37c-.11.17-.08.24,0,.25s.15,0,.26-.16S43.77,62.61,43.62,62.62Z"/><path class="cls-114" d="M42.77,63.69a.66.66,0,0,0-.27.72c.19-.09.17-.34.37-.62S43.19,63.38,42.77,63.69Z"/><path class="cls-115" d="M41.92,59.9a2.23,2.23,0,0,0-.58.63c-.12.16-.34.23-.35.29s0,0,0,.08A2.22,2.22,0,0,0,42.16,60S42.31,59.62,41.92,59.9Z"/><path class="cls-116" d="M64.78,46.8s-.41,0-.24-.35-1.2.51-.78.47c0,0,1.16.41,1.67,0C65.43,46.92,65.39,46.72,64.78,46.8Z"/><path class="cls-117" d="M272.9,36.81A185.62,185.62,0,0,0,27.49,60.47,190.49,190.49,0,0,1,56.68,35.63,186.85,186.85,0,0,1,89.34,17.55a2.08,2.08,0,0,0-.35.23,9.65,9.65,0,0,1-1.83.88l-.16.08c-.22.12-.81.47-.63.49a4,4,0,0,0,1.84-.51c1-.49,5.93-2.48,6.07-2.47s.09.15-.09.22a36.74,36.74,0,0,0-4.42,1.93c-.35.32-.45.49-.7.55s-.42-.19-.66-.09-1.44.62-1.78.81-1-.07-1.34.12-1,.31-1.27.71-.62.49-.62.64.21.15.21.15.89-.37,1-.22-.28.23-.21.3a1.7,1.7,0,0,0,1.19-.16A20,20,0,0,0,88.25,20a3.83,3.83,0,0,1,.81-.71,3.66,3.66,0,0,0,.81-.53c0-.08,0-.23,0-.23s.43-.3.55-.18.4.06.35.26-.94.49-1.08.57a9.28,9.28,0,0,0-1,1,1.54,1.54,0,0,1-.64.62c-.44.25-.25.44.12.27S93.5,19,93.66,18.78s.27.09.45,0a10.91,10.91,0,0,0,2.19-1.16c.08-.23-.38.06-.54.1s-.46,0-.09-.16.63-.38.58-.51,1.28-.55,1.37-.6a4,4,0,0,0,.8-.87.83.83,0,0,1,.45-.33,14.8,14.8,0,0,0,2.1-.91,10.11,10.11,0,0,1,1.68-1.07c.29-.12,2.62-1.21,2.9-1.28s.33-.22.33-.22,2.75-1,2-.94c0,0-.1-.06-.22-.06,4-1.24,8-2.35,12.06-3.32a6.41,6.41,0,0,0-.77.32,2.42,2.42,0,0,1-.35.12c-.59.14-2.39.61-2.54.67s-.31.32-.45.35a27.42,27.42,0,0,0-3.49.78,37.76,37.76,0,0,0-3.74,1.2,1.32,1.32,0,0,0-.36.28l-.07.09a1.08,1.08,0,0,1-.52.32l-1.47.48a20.62,20.62,0,0,0-2.17,1.2,11.51,11.51,0,0,0,1.63-.53c.38-.21.3.18.3.18a4.2,4.2,0,0,1-1.77.83,7.75,7.75,0,0,0-1.73.69,3.64,3.64,0,0,1-.57.25c-.56.17-1.67.56-1.64.75s.32,0,.69,0a11.61,11.61,0,0,1,1.83-.35c.13.07-1.05.56-1.05.56s-.2.16.18.09a3.78,3.78,0,0,1,1.29-.23,1.76,1.76,0,0,0,.77-.11,51.34,51.34,0,0,1,5.72-1.7,2,2,0,0,0,.4-.1,2.74,2.74,0,0,1,1.29-.2,1.29,1.29,0,0,0,.53.1c.42,0,1,0,1.08.23a.7.7,0,0,0,.39,0c.19-.05.31.21.34.52a2.43,2.43,0,0,0,0,.26c0,.13.21.19.41.15a2.26,2.26,0,0,0,1.09-.39c.26-.3.78,0,.91,0s.44,0,.69-.12.56.15.11.26-1.56.26-1.9.41-.42.56-.31.61a3.2,3.2,0,0,0,2.08-.61c.84-.62.86.19.75.31a2.61,2.61,0,0,1-1.26.47c-.65.08-.53,1.05-.14,1.27s.74-.06,1.19.44a.71.71,0,0,0,.23.18,8.74,8.74,0,0,0,2.82.85,1.59,1.59,0,0,0,.57,0l1.11-.26a7.92,7.92,0,0,1,.78.17A2.86,2.86,0,0,0,124,18a.72.72,0,0,0,.28-.6c0-.22.39-.31.4-.49s-.24-.06-.2-.3.64-.43.64-.43.9-.36.18-.93c0,0,0-.2.52-.17a2.52,2.52,0,0,0,.39-.34c.11-.13.29-.31,1.5-.41a2.15,2.15,0,0,0,.5-.12,9.66,9.66,0,0,0,2.53-1.28,2.44,2.44,0,0,1,.9-.44c.82-.2,2.35-.58,3.34-.85a19.45,19.45,0,0,0,3.49-1.22,6,6,0,0,0-1.46.15.25.25,0,0,1-.15,0,.3.3,0,0,0-.44.11l-.64.09s-.29-.07,0-.17l.19-.07a.61.61,0,0,0,.36-.3c0-.09.14-.17.4-.17.51,0,.54.24.73.24s1.38-.13,1.56-.18c0,0,.28-.29-.06-.39a7,7,0,0,0-1.13-.14s-.13-.26.38-.25.8,0,.79-.07,0-.23-.59-.24,0-.32.38-.25a8.51,8.51,0,0,0,1.13-.29c.27-.12-.34-.13-.21-.23S141,8.05,141,7.91s-.3-.08-.47-.06-.08,0-.06,0,.34-.62-.31-.56-1.21.07-1.21.07-.27-.25.29-.3,2.08-.31,2.08-.31.07-.26-.27-.28-.89,0-.61-.36c0,0-.25-.14-.12-.24a19,19,0,0,1,5.46-1.75c2.49-.31-3.52-.18-5.71.5a26,26,0,0,1-3.62.76s-.31-.16.89-.46.91-.38.91-.38l-1.91.43c-.41.08-4.35.41-.36-.21.95-.14,3.12-.31,3.18-.57,0,0-1.76.12-3.23.2a188.49,188.49,0,0,1,29-2,186.39,186.39,0,0,1,38,4.11,188.72,188.72,0,0,1,36.4,11.81,186.38,186.38,0,0,1,33.26,19,190.34,190.34,0,0,1,28.82,25.28A185.12,185.12,0,0,0,272.9,36.81Z"/><polygon class="cls-118" points="280.79 46.53 276.68 54.46 278.74 61.88 285.39 62.71 287.66 52.7 280.79 46.53"/><path class="cls-119" d="M248.62,149.16a172.36,172.36,0,0,1-21.77,12.61,175,175,0,0,1-23.46,9.29,178.41,178.41,0,0,1-24.59,5.87,185,185,0,0,1-25.19,2.35,188.89,188.89,0,0,1-25.28-1.19,179,179,0,0,1-24.84-4.73,175.38,175.38,0,0,1-23.86-8.2,171.77,171.77,0,0,1-22.33-11.6,203.81,203.81,0,0,0,22.92,10.12,200.17,200.17,0,0,0,23.89,7.22A194.88,194.88,0,0,0,128.67,175a191.06,191.06,0,0,0,24.86,1,188.89,188.89,0,0,0,24.79-2.13,197,197,0,0,0,24.35-5.26A204.19,204.19,0,0,0,248.62,149.16Z"/><path class="cls-120" d="M313.64,100.81a22.84,22.84,0,0,1-2.07-1.41c-2.06-1.76-4-3.62-6.12-5.34-2.27-1.88-4.74-3.54-6.94-5.49-4.26-3.79-7.53-8.43-10.86-13-2.85-3.93-5.72-7.85-8.52-11.83-2.17-3.08-2.54-6.79-3.38-10.33a1.19,1.19,0,0,1,0-.42c.32-1.92.6-3.84,1-5.74a4.49,4.49,0,0,1,2.95-3.63,3.85,3.85,0,0,0,1.38-.71c.41-.39.95-1,.88-1.46a5,5,0,0,1,1.32-3.84,6.54,6.54,0,0,1,3.22-2.68c4.62-1.42,9.23-.51,13.83,0a4.61,4.61,0,0,1,1.19.39c3,1.25,6,2.48,8.91,3.79A11.46,11.46,0,0,1,313,40.64c2.9,2.37,5.23,5.39,8.52,7.31a1.17,1.17,0,0,1,.21.23,55.17,55.17,0,0,1,7.93,11.58c1.93,4,4,7.87,5.11,12.28,1.89,7.37,2.82,14.63.72,22.09-.5,1.77-1,3.47-2.57,4.59a3.24,3.24,0,0,0-.82.94c-1,1.62-2.07,3.21-4,3.83a1.24,1.24,0,0,0-.55.47,2.57,2.57,0,0,1-3.08.83c-.64-.18-1.28-.36-1.9-.59-1.82-.66-3.63-1.37-5.45-2-1.17-.42-2.35-.8-3.52-1.2Z"/><path class="cls-121" d="M311.74,24.64a11.94,11.94,0,0,1-1.24.91c-1.44.83-2.91,1.59-4.34,2.45s-3,2-4.59,2.89a48.11,48.11,0,0,1-9.74,3.62c-2.86.84-5.71,1.7-8.58,2.5-2.22.63-4.44.09-6.66-.15a.7.7,0,0,1-.24-.09c-1-.58-2.1-1.13-3.12-1.74a2.78,2.78,0,0,1-1.5-2.45,2.28,2.28,0,0,0-.12-.94c-.15-.32-.4-.76-.67-.81A3,3,0,0,1,269,29.29a4.07,4.07,0,0,1-.89-2.41c.13-3,1.59-5.44,2.85-8a2.69,2.69,0,0,1,.47-.61c1.33-1.46,2.65-2.93,4-4.37a7,7,0,0,1,1.41-1.2c2-1.19,4.18-1.93,6-3.43A.53.53,0,0,1,283,9.2,34.24,34.24,0,0,1,291.29,7a40.12,40.12,0,0,1,8.14-.45c4.65.42,9,1.37,12.91,4.1a4.45,4.45,0,0,1,2.13,2.43,2.1,2.1,0,0,0,.38.66,4.76,4.76,0,0,1,1.39,3.12.8.8,0,0,0,.16.41,1.59,1.59,0,0,1-.15,1.95,11.86,11.86,0,0,1-.73,1c-.76.92-1.53,1.82-2.29,2.74-.48.58-.94,1.19-1.41,1.78Z"/><path class="cls-119" d="M313.64,100.81a22.84,22.84,0,0,1-2.07-1.41c-2.06-1.76-4-3.62-6.12-5.34-2.27-1.88-4.74-3.54-6.94-5.49-4.26-3.79-7.53-8.43-10.86-13-2.85-3.93-5.72-7.85-8.52-11.83-2.17-3.08-2.54-6.79-3.38-10.33a1.19,1.19,0,0,1,0-.42c.32-1.92.6-3.84,1-5.74a4.49,4.49,0,0,1,2.95-3.63,3.85,3.85,0,0,0,1.38-.71c.41-.39.95-1,.88-1.46a5,5,0,0,1,1.32-3.84,6.54,6.54,0,0,1,3.22-2.68c4.62-1.42,9.23-.51,13.83,0a4.61,4.61,0,0,1,1.19.39c3,1.25,6,2.48,8.91,3.79A11.46,11.46,0,0,1,313,40.64c2.9,2.37,5.23,5.39,8.52,7.31a1.17,1.17,0,0,1,.21.23,55.17,55.17,0,0,1,7.93,11.58c1.93,4,4,7.87,5.11,12.28,1.89,7.37,2.82,14.63.72,22.09-.5,1.77-1,3.47-2.57,4.59a3.24,3.24,0,0,0-.82.94c-1,1.62-2.07,3.21-4,3.83a1.24,1.24,0,0,0-.55.47,2.57,2.57,0,0,1-3.08.83c-.64-.18-1.28-.36-1.9-.59-1.82-.66-3.63-1.37-5.45-2-1.17-.42-2.35-.8-3.52-1.2ZM300.12,59.86c1.09.25,2.2.36,3.27.64,1.57.42,3.11,1,4.68,1.39a5.29,5.29,0,0,0,1.53.22,25.07,25.07,0,0,1,10.88,1.94,11.1,11.1,0,0,1,4.62,4.09c.3.43.2,1.12.32,1.68.08.36.1.89.34,1.05,1.64,1,3.32,2,5,3a4,4,0,0,0,.91.18l-2.45-3,.09-.1,4.49,3.31a2.82,2.82,0,0,0-.87-2.53,31.71,31.71,0,0,0-9.14-7.45c-5.44-2.79-10.92-5.37-17.09-6-.69-.07-1.39-.09-2.08-.15a3.66,3.66,0,0,0-2.8.67c-.64.5-1.73.4-2.77.6A5.11,5.11,0,0,0,300.12,59.86Zm.12,3.61c.12.49.37,1.13.17,1.49-1,1.87-.69,3.82-.5,5.76.38,4,.68,8,1.22,11.92a58.15,58.15,0,0,0,1.55,6.68c.44,1.73,2,2.43,3.16,3.56l.34-.1c-.16-1.31-.29-2.63-.5-3.93,0-.21-.36-.4-.59-.53a4.33,4.33,0,0,1-1.87-2.64c-1.37-4.13-.82-8.14.46-12.17a24.46,24.46,0,0,0,.85-4.27,3.08,3.08,0,0,0-.86-2.47c-1-1.18-2-2.43-2.94-3.65-.2-.26-.44-.49-.66-.73l-.26.18A4.12,4.12,0,0,1,300.24,63.47Zm34.37,23.47a29.63,29.63,0,0,0-6.69-7.08,28.29,28.29,0,0,0-4.68-2.7c-3.16-1.43-6.38-2.73-9.62-4a15.32,15.32,0,0,0-2.9-.54l-.19.31c.35.52.76,1,1.06,1.56,1.27,2.29,2.93,3.63,5.82,3.54A13.57,13.57,0,0,1,327,82c2.64,2.41,5.09,5,7.62,7.57.12.12.25.22.53.45A3.55,3.55,0,0,0,334.61,86.94ZM308.82,69.41c.45,0,.9,0,1.35.06,1.81.06,2.31.81,1.69,2.31,3.49,1.45,6.93,3,10.48,4.31a26.93,26.93,0,0,1,10.37,7c.78.82,1.65,1.56,2.48,2.33l.28-.17a8.86,8.86,0,0,0-.76-1.47,48.83,48.83,0,0,0-12.6-10.8,5.57,5.57,0,0,0-2-.7,23.37,23.37,0,0,1-6.53-2.38c-2.36-1.09-4.8-2-7.22-3a4.89,4.89,0,0,0-1.19-.14A4.36,4.36,0,0,0,308.82,69.41Zm5.58-22.09,0-.1,6.22,1.7.15-.32a5.4,5.4,0,0,0-1-.54c-4.51-1.29-9-2.55-13.53-3.83a1.55,1.55,0,0,0-1.65.5A8.24,8.24,0,0,1,297.7,47c-2.8-.35-5.22.68-7.61,1.85l0,.4a15.43,15.43,0,0,0,1.8,0c3.31-.39,6.61-.83,9.92-1.21a41,41,0,0,1,18.56,2.37c.25.09.52.14.78.21l.19-.4ZM315.3,96a6,6,0,0,1-.76-7.56c2.44-4.16,1.78-3.59-.17-7a35.09,35.09,0,0,0-3.17-4.72c0,.45.06.9.1,1.36.45,5.11.87,10.23,1.36,15.35a14.7,14.7,0,0,0,2.11,6.27A8.94,8.94,0,0,0,316,101l.32-.2C316.08,99.16,316.62,97.54,315.3,96ZM298.44,56.51a12.36,12.36,0,0,0,1.8-.52,2.09,2.09,0,0,1,2.42.68,2.16,2.16,0,0,0,1.21.61,39.2,39.2,0,0,1,16.74,4.65c3.14,1.62,6.16,3.49,9.23,5.25l1.57.87.24-.29a40.76,40.76,0,0,0-4.11-3.69,54.4,54.4,0,0,0-13-6.67,6.2,6.2,0,0,0-1.83-.21A36.58,36.58,0,0,1,302,55.62a38.76,38.76,0,0,0-6-1.07,3.06,3.06,0,0,0-1,.18A3.35,3.35,0,0,0,298.44,56.51Zm32.05,43.23c.85-.38,1-.91.44-1.62A23.12,23.12,0,0,1,329.25,96c.75.55,1.49,1.12,2.27,1.64a2.23,2.23,0,0,0,.8.17c0-.3.07-.7-.09-.88q-3.94-4.45-7.93-8.84a4.28,4.28,0,0,0-1.09-.79A55.07,55.07,0,0,0,318,84.56a19,19,0,0,1,1.43,2.29c.48,1.07,1.37,1.11,2.31,1.24a7.66,7.66,0,0,1,5.74,5.72l-3.53,0c.47,2.89,3.12,3.84,4.57,5.77l.28-.18-1.12-1.81.11-.14ZM289,51.12h-.34c0,.56-.07,1.13-.11,1.69-.18,2.39-.33,4.78-.55,7.16-.1,1.13-.36,2.21-1.75,2.53-.18,0-.39.54-.38.82a33.77,33.77,0,0,0,3.23,12.22,7,7,0,0,0,.76,1.07C289.52,68.06,289.24,59.59,289,51.12Zm33.83,1.4a29.61,29.61,0,0,0-12.62-3.9,19.32,19.32,0,0,0-3.32-.08c1.37.33,2.74.67,4.12,1a9.62,9.62,0,0,1,6.55,4.87,1.38,1.38,0,0,0,.72.52,25.82,25.82,0,0,0,7.93,1.25A7.59,7.59,0,0,0,322.78,52.52ZM300.91,87.37c-.46-4.8-.94-9.61-1.4-14.41-.19-2.08-.31-4.16-.53-6.24a3.59,3.59,0,0,0-.57-1.38,3.37,3.37,0,0,1,0-3,1.89,1.89,0,0,0-.92-2.63c-.09,1.6-.28,3.14-.23,4.67.09,2.6.35,5.19.52,7.79a70.32,70.32,0,0,0,2,13.91c.18.67.48,1.32.73,2l.35-.09C300.91,87.77,300.93,87.57,300.91,87.37Zm-12.53-42a26.37,26.37,0,0,0,2.33-1.57,13,13,0,0,1,9.94-2.85c1.35.2,2.6,1.18,3.88,1.81.3.15.58.48.87.5,2.87.11,5.74.17,8.75,0-1.18-.55-2.35-1.12-3.55-1.64a25.7,25.7,0,0,0-9.32-1.71,14.93,14.93,0,0,0-5.17.87A32.08,32.08,0,0,0,287.3,45a3.55,3.55,0,0,0-.47.4,3,3,0,0,0-.08.55A10,10,0,0,0,288.38,45.34ZM329,62.26c-3.22-2.17-6.54-4.19-9.83-6.24a1.58,1.58,0,0,0-2.16.08,7.81,7.81,0,0,1-2.29.89c5.7,2.08,10.63,5.23,15.73,8l.35-.35A9.54,9.54,0,0,0,329,62.26Zm-31.57,9.13-.2,0a8.06,8.06,0,0,1-.54,1.47c-.46.75-1,1.43-1.52,2.16-.22.33-.54.75-.5,1.09a34.35,34.35,0,0,0,2.88,9.77,5.48,5.48,0,0,0,.71,1l.43-.1ZM290.68,68c.15-2,.32-4.08.47-6.12A6.65,6.65,0,0,1,293,58.11c1.14-1.39,1.14-1.6,0-3-.61-.76-1.22-1.52-1.86-2.24a3.36,3.36,0,0,0-.82-.49,2.74,2.74,0,0,0-.29.83c0,4.21-.07,8.41-.05,12.61,0,1.7.19,3.39.29,5.09h.26C290.57,69.92,290.61,69,290.68,68ZM302.37,38.9c-5.83-2-16.31,2-16.43,6.3C290.62,41.17,296.4,40,302.37,38.9Zm30.88,57.5c-.16-.78-.26-1.36-.4-1.94a12.26,12.26,0,0,0-3.05-5.83,2.53,2.53,0,0,0-1.43-.66c-1.12-.16-2.27-.17-3.52-.25Zm-11.46-1.09a2.77,2.77,0,0,0-.92-2.67,18.15,18.15,0,0,0,.27,2.46c.65,2.51,1.37,5,2.07,7.51.25.89.89,1.14,1.85,1.09l-.43-1.16.15-.14,1.18,1.25c1.25-.58,1.23-.7.62-1.79-.92-1.62-1.73-3.3-2.65-5.07l-.79,1.3A2.43,2.43,0,0,1,321.79,95.31Zm-12.21-8c-.83.48-1.58.9-2.29,1.35a1,1,0,0,0-.29.53c-.46,1.93,1.45,6.72,3.1,7.8a2.88,2.88,0,0,0,.62.19C310.33,93.79,310,90.58,309.58,87.28Zm22.08-8.72.27-.21a20.72,20.72,0,0,0-2.33-3.55,32.28,32.28,0,0,0-4-3.1,1.3,1.3,0,0,0-1.79,0,6.92,6.92,0,0,1-1.66.71ZM310.75,83.7c-.28,1.14-.88,2.29-.78,3.38A37.9,37.9,0,0,0,312,98a8,8,0,0,0,.78,1.21l.11-.12C312.21,94,311.49,88.88,310.75,83.7Zm-16.6-1.61c.1-2.32.23-4.49-.79-6.54a.53.53,0,0,0-.21-.23c-1.62-.65-2-2.15-2.62-3.59C290.38,75,292.28,80.53,294.15,82.09Zm-11.91-20c0-.67-.21-1.35-.25-2a13.17,13.17,0,0,1,0-3.26,13,13,0,0,1,4-7.14c.15-.13.36-.29.39-.47.06-.38.17-.88,0-1.14-.34-.48-.88-.4-1.2.11a34.7,34.7,0,0,0-2.42,4.1c-1.89,4.26-1.74,8.69-.79,13.29C282.08,64.26,282.22,63.17,282.24,62.07Zm37.9,30.35c-1.51,1.76-1.44,4.16.28,9.14.24.68.54,1.2,1.37,1.15C321.23,99.21,320.68,95.8,320.14,92.42ZM278.88,55.64c1.11-2.88,2.2-5.72,3.38-8.77C279.44,48.1,277.18,54.11,278.88,55.64ZM291,36.43a65.26,65.26,0,0,0-5.29,4,1.37,1.37,0,0,0-.31,1,24.84,24.84,0,0,1,9-4.31C293.19,36.13,292,35.79,291,36.43Zm-6.15,26.83c0-.83-.32-1-2.05-1.32.07,2.7.29,5.29,2.23,7.43C285,67.33,285,65.3,284.85,63.26ZM318.6,95.59c-1.8.74-2.12,1.35-1.54,3a13.56,13.56,0,0,0,1.05,2.37c.24.39.76.61,1.15.92l.25-.23C319.21,99.61,318.9,97.62,318.6,95.59Zm-27-44.93a1.62,1.62,0,0,0,2.07.62,21.49,21.49,0,0,1,7.2-2.49C297.73,49,294.56,49,291.6,50.66Zm9.47,10.43c1.16,2.14,4.12,2.65,6.37,1.1C305.31,61.63,303.3,60.93,301.07,61.09Zm28,24a2.42,2.42,0,0,0,1.16,2.73,33.59,33.59,0,0,1,3,2.25A9.56,9.56,0,0,0,329.06,85.07Zm-.14,16.69-2.84-4-.27.22C326.43,100.16,327.63,101.81,328.92,101.76ZM296.85,61.83,297,59C296.18,59.74,296.15,60.53,296.85,61.83Z"/><path class="cls-119" d="M311.74,24.64a11.94,11.94,0,0,1-1.24.91c-1.44.83-2.91,1.59-4.34,2.45s-3,2-4.59,2.89a48.11,48.11,0,0,1-9.74,3.62c-2.86.84-5.71,1.7-8.58,2.5-2.22.63-4.44.09-6.66-.15a.7.7,0,0,1-.24-.09c-1-.58-2.1-1.13-3.12-1.74a2.78,2.78,0,0,1-1.5-2.45,2.28,2.28,0,0,0-.12-.94c-.15-.32-.4-.76-.67-.81A3,3,0,0,1,269,29.29a4.07,4.07,0,0,1-.89-2.41c.13-3,1.59-5.44,2.85-8a2.69,2.69,0,0,1,.47-.61c1.33-1.46,2.65-2.93,4-4.37a7,7,0,0,1,1.41-1.2c2-1.19,4.18-1.93,6-3.43A.53.53,0,0,1,283,9.2,34.24,34.24,0,0,1,291.29,7a40.12,40.12,0,0,1,8.14-.45c4.65.42,9,1.37,12.91,4.1a4.45,4.45,0,0,1,2.13,2.43,2.1,2.1,0,0,0,.38.66,4.76,4.76,0,0,1,1.39,3.12.8.8,0,0,0,.16.41,1.59,1.59,0,0,1-.15,1.95,11.86,11.86,0,0,1-.73,1c-.76.92-1.53,1.82-2.29,2.74-.48.58-.94,1.19-1.41,1.78Zm-26.43-.54c.36-.58.66-1.2,1-1.76.56-.83,1.18-1.61,1.76-2.43a3.27,3.27,0,0,0,.43-.83,15.35,15.35,0,0,1,3.35-5.9,6.85,6.85,0,0,1,3.3-1.83c.31-.09.69.11,1,.16s.54.12.68,0c.93-.73,1.84-1.51,2.75-2.27a3.34,3.34,0,0,0,.29-.49l-2.23.8-.05-.07,2.83-1.92a1.71,1.71,0,0,0-1.63,0,19.43,19.43,0,0,0-6.18,3.76c-2.72,2.58-5.33,5.22-7,8.65-.18.39-.33.78-.5,1.17a2.19,2.19,0,0,0-.19,1.76c.16.47-.12,1.08-.22,1.72A3.07,3.07,0,0,0,285.31,24.1Zm2.11.66c.31,0,.73,0,.9.21a5.72,5.72,0,0,0,3.22,1.47c2.38.59,4.74,1.23,7.14,1.73a36.35,36.35,0,0,0,4.18.46c1.09.1,1.82-.68,2.7-1.1v-.22c-.79-.17-1.58-.36-2.37-.51-.13,0-.3.13-.43.24a2.71,2.71,0,0,1-1.91.54,11.83,11.83,0,0,1-6.94-2.75,15.08,15.08,0,0,0-2.29-1.37,1.9,1.9,0,0,0-1.6,0c-.89.36-1.81.64-2.71,1a5.48,5.48,0,0,0-.56.23l.05.19A2.54,2.54,0,0,1,287.42,24.76ZM308,9.69a18,18,0,0,0-5.46,2.42A17.88,17.88,0,0,0,300,14.26c-1.47,1.54-2.88,3.14-4.27,4.75a9.32,9.32,0,0,0-.91,1.57l.15.17c.37-.1.74-.23,1.11-.3a3.62,3.62,0,0,0,3.24-2.64,8.34,8.34,0,0,1,4.25-4.73c1.94-1,3.95-1.91,5.93-2.85l.37-.22A2.13,2.13,0,0,0,308,9.69ZM292.61,21c.11-.25.21-.51.31-.77.4-1,.94-1.17,1.68-.5,1.55-1.73,3.16-3.4,4.63-5.18A16.5,16.5,0,0,1,305.37,10c.63-.28,1.23-.64,1.85-1l-.05-.19a4.73,4.73,0,0,0-1,.14,29.69,29.69,0,0,0-8.81,5.08,3.27,3.27,0,0,0-.83,1,14.29,14.29,0,0,1-2.7,3.29c-1.12,1.14-2.15,2.37-3.2,3.57a3.12,3.12,0,0,0-.32.66A2.71,2.71,0,0,0,292.61,21ZM281,13.28l-.06,0L283.18,10,283,9.85a3.8,3.8,0,0,0-.52.46q-2.49,3.53-5,7a1,1,0,0,0,0,1.06,5.08,5.08,0,0,1-.12,4.45,8.18,8.18,0,0,0-.49,4.78l.23.07a8.19,8.19,0,0,0,.37-1.05c.45-2,.87-4,1.33-6A25.06,25.06,0,0,1,284,10.44c.11-.13.19-.27.29-.41l-.2-.19ZM309.3,22.7a3.67,3.67,0,0,1-4.53-1.1c-1.9-2.26-1.71-1.77-4.1-1.34a22.23,22.23,0,0,0-3.37.86l.8.23c3,.78,6.1,1.59,9.15,2.35a9,9,0,0,0,4.06.06,4.71,4.71,0,0,0,1-.43l-.05-.22C311.28,22.9,310.46,22.25,309.3,22.7ZM283,24.38a7.26,7.26,0,0,0,.06-1.14c0-.67.37-1,.89-1.27a1.23,1.23,0,0,0,.6-.57,24.15,24.15,0,0,1,6.11-8.72c1.58-1.49,3.27-2.85,4.92-4.27l.82-.73-.12-.2a26.65,26.65,0,0,0-3,1.63,33.09,33.09,0,0,0-6.5,6.12,3.64,3.64,0,0,0-.49,1,22.59,22.59,0,0,1-3.11,5.91,22.65,22.65,0,0,0-1.85,3.26,2.34,2.34,0,0,0-.1.61A2.07,2.07,0,0,0,283,24.38Zm31.53-9.69c0-.57-.31-.78-.85-.59a13.47,13.47,0,0,1-1.59.53c.47-.32.95-.64,1.41-1a1.36,1.36,0,0,0,.26-.42c-.18-.05-.39-.19-.53-.13q-3.37,1.37-6.73,2.78a2.55,2.55,0,0,0-.68.46,33.77,33.77,0,0,0-2.62,2.49,11.59,11.59,0,0,1,1.61-.35c.72-.06.92-.57,1.19-1.09a4.73,4.73,0,0,1,4.48-2.15l-.69,2c1.76.32,2.85-1,4.27-1.46l0-.19-1.28.27-.06-.1ZM278,28.77l-.08.19,1,.41c1.35.59,2.7,1.16,4,1.78.63.29,1.2.66,1.1,1.53,0,.11.24.34.4.38a20.73,20.73,0,0,0,7.72.64,4.6,4.6,0,0,0,.78-.23ZM285.69,9.5A18.2,18.2,0,0,0,280.86,16a12.51,12.51,0,0,0-.72,1.91c.47-.73.94-1.45,1.4-2.18a5.91,5.91,0,0,1,4.15-2.8.86.86,0,0,0,.45-.31,15.67,15.67,0,0,0,2.34-4.33A4.71,4.71,0,0,0,285.69,9.5Zm15.68,19.76-8.62-2.14c-1.24-.31-2.47-.67-3.71-1a2.16,2.16,0,0,0-.91,0,2,2,0,0,1-1.73-.62,1.16,1.16,0,0,0-1.71,0c.91.37,1.76.8,2.65,1.08,1.52.48,3.07.86,4.61,1.29a43.44,43.44,0,0,0,8.45,1.67c.43,0,.87,0,1.3,0v-.22A3.4,3.4,0,0,0,301.37,29.26Zm-26.86-1.35a11.9,11.9,0,0,0-.43-1.66,7.92,7.92,0,0,1,.39-6.33,8.79,8.79,0,0,1,1.84-1.87c.15-.15.39-.24.46-.4.65-1.64,1.27-3.29,1.8-5.06-.56.57-1.13,1.13-1.68,1.71a16,16,0,0,0-2.89,5,9.16,9.16,0,0,0-.55,3.17,19.56,19.56,0,0,0,.64,5.95,1.58,1.58,0,0,0,.14.36s.06,0,.29.16A6.21,6.21,0,0,0,274.51,27.91Zm18.08-20c-1.91,1.41-3.75,2.92-5.62,4.41a1,1,0,0,0-.39,1.26,4.82,4.82,0,0,1,.05,1.51,67.91,67.91,0,0,1,7.86-7.45l-.13-.28A5.73,5.73,0,0,0,292.59,7.9ZM291.42,28l-.07.1a5.65,5.65,0,0,1,.74.62c.34.42.61.89.94,1.32.15.19.32.46.53.51a21,21,0,0,0,6.23.33,3.82,3.82,0,0,0,.71-.21l0-.27Zm-3.33,3.21-3.44-1.52a4.16,4.16,0,0,1-1.81-1.83c-.58-.95-.7-1-1.76-.62-.56.19-1.13.39-1.68.61a2,2,0,0,0-.45.38,1.9,1.9,0,0,0,.43.33c2.42.88,4.84,1.76,7.28,2.6,1,.34,2,.59,3,.88l.06-.15ZM273.65,18.51c-2.33,3-2.18,9.84.29,10.79C272.56,25.77,273.09,22.19,273.65,18.51Zm39.54-6.1c-.48-.07-.83-.13-1.2-.17a7.48,7.48,0,0,0-4,.58,1.52,1.52,0,0,0-.67.68c-.32.62-.57,1.28-.87,2Zm-3,6.4a1.66,1.66,0,0,0-1.72,0,10.78,10.78,0,0,0,1.47.34c1.58.14,3.17.23,4.76.34.57,0,.85-.28,1-.85l-.76,0-.05-.12,1-.43c-.08-.84-.16-.85-.91-.72-1.13.2-2.27.33-3.47.49l.59.73A1.5,1.5,0,0,1,310.22,18.81Zm-7.13,5.42c.11.58.2,1.09.31,1.6a.59.59,0,0,0,.25.27,6.6,6.6,0,0,0,5.14-.19,3.23,3.23,0,0,0,.24-.33Zm-.53-14.55-.07-.2a12.91,12.91,0,0,0-2.52.63,19.16,19.16,0,0,0-2.62,1.69.78.78,0,0,0-.38,1,4.88,4.88,0,0,1,.07,1.11Zm-1.3,13.14A6.83,6.83,0,0,0,303.05,24a23.2,23.2,0,0,0,6.72,1,4.49,4.49,0,0,0,.86-.21l-.05-.08Zm-4.33,9.27a7.76,7.76,0,0,0-3.94-.88.33.33,0,0,0-.17.07c-.71.81-1.66.75-2.61.78C292.07,32.82,295.65,32.85,296.93,32.09Zm-14,2.79c-.39-.14-.82-.15-1.22-.27a8.13,8.13,0,0,1-1.89-.67,7.92,7.92,0,0,1-3.31-3.78c0-.11-.09-.27-.19-.32s-.47-.28-.66-.22a.41.41,0,0,0-.19.71,21.42,21.42,0,0,0,1.88,2.24,13,13,0,0,0,7.52,3.17C284.16,35.42,283.56,35.12,282.93,34.88Zm25.28-15.71c.72,1.24,2.12,1.68,5.35,1.71.44,0,.8-.07.94-.56ZM278.53,35.51l-4.38-3.75C274.29,33.64,277.3,36.18,278.53,35.51ZM269.9,24.58c.3,1.31.79,2.59,1.22,3.87a.85.85,0,0,0,.49.37,15.25,15.25,0,0,1-.65-6.1C270.17,23.25,269.73,23.87,269.9,24.58Zm14.25,9c-.49-.14-.63,0-1.18.92,1.58.51,3.12.92,4.75.23C286.53,34.38,285.35,34,284.15,33.61Zm25.58-12.9c.06,1.19.35,1.5,1.4,1.5a7.55,7.55,0,0,0,1.58-.13,2.85,2.85,0,0,0,.77-.47l-.08-.19Zm-31.48,6.43a1,1,0,0,0,.78-1.07,13.32,13.32,0,0,1,0-4.67C278.52,23.25,277.89,25.09,278.25,27.14Zm8-3.34a2.68,2.68,0,0,0,1.94-3.46A11.93,11.93,0,0,0,286.21,23.8Zm19.58-11.28a1.49,1.49,0,0,0,1.82-.12,20.48,20.48,0,0,1,1.92-1.3A5.87,5.87,0,0,0,305.79,12.52ZM315.41,16l-2.88.82.07.21C314,17.12,315.18,16.76,315.41,16ZM285.78,26.39l-1.61-.67C284.44,26.35,284.88,26.52,285.78,26.39Z"/><path class="cls-119" d="M283,25.81c-2.61,1.25-5.21,2.51-7.77,3.83-1.3.67-2.51,1.33-3.77,2.11s-2.53,1.44-3.86,2.1l-.64-1.5c1.31-.5,2.64-1.08,3.93-1.68s2.67-1.24,4-1.77C277.55,27.82,280.26,26.81,283,25.81Z"/><path class="cls-119" d="M0,97.43A185.82,185.82,0,0,1,24.58,62,191.27,191.27,0,0,1,56.9,33.28a184.46,184.46,0,0,1,38.18-20.5,188.21,188.21,0,0,1,42-11A194.08,194.08,0,0,1,158.69.06c1.81,0,3.62-.09,5.43,0l5.44.15c3.62,0,7.23.41,10.84.68A178.23,178.23,0,0,1,222.75,10l5.12,1.79,5,2c3.38,1.28,6.62,2.89,9.91,4.39,1.65.72,3.24,1.6,4.84,2.43l4.8,2.51,4.67,2.73c1.55.93,3.14,1.78,4.63,2.81a187.58,187.58,0,0,1,33.37,27.29A198.23,198.23,0,0,0,260.91,30c-1.5-1-3.09-1.8-4.65-2.68l-4.68-2.61-4.8-2.39c-1.61-.79-3.19-1.62-4.84-2.3-3.28-1.42-6.52-2.94-9.88-4.14l-5-1.9L222,12.33A202.15,202.15,0,0,0,201.28,6.9c-1.74-.38-3.51-.63-5.26-.94s-3.51-.65-5.28-.88l-5.3-.64c-1.77-.22-3.54-.45-5.32-.54-3.56-.21-7.1-.61-10.67-.61l-5.34-.12c-1.78,0-3.56.05-5.34.07A194.57,194.57,0,0,0,137.48,5,187.68,187.68,0,0,0,96.19,15.64,191.93,191.93,0,0,0,58.31,35.33,193.9,193.9,0,0,0,0,97.43Z"/><text class="cls-122" transform="translate(35.21 141.52)">p<tspan class="cls-123" x="14.05" y="0">l</tspan><tspan class="cls-124" x="24.26" y="0">a</tspan><tspan class="cls-125" x="40.23" y="0">s</tspan><tspan class="cls-126" x="52.42" y="0">t</tspan><tspan class="cls-127" x="62.93" y="0">i</tspan><tspan x="72.13" y="0">c </tspan><tspan class="cls-128" x="97.75" y="0">f</tspan><tspan class="cls-123" x="110.77" y="0">r</tspan><tspan x="122.29" y="0">ee f</tspan><tspan class="cls-129" x="173.9" y="0">u</tspan><tspan x="189.31" y="0">t</tspan><tspan class="cls-130" x="199.7" y="0">u</tspan><tspan class="cls-123" x="215.69" y="0">r</tspan><tspan class="cls-131" x="227.2" y="0">e</tspan></text><text class="cls-132" transform="translate(7.12 113.74) scale(0.85 1)">good earth bag</text><text class="cls-133" transform="translate(7.12 113.74) scale(0.85 1)">good earth bag</text></g></g></svg>