<svg xmlns="http://www.w3.org/2000/svg" viewBox="0 0 38.17 38.63"><defs><style>.cls-1{fill:#fff;}</style></defs><title>pre-title-icon</title><g id="Layer_2" data-name="Layer 2"><g id="Layer_1-2" data-name="Layer 1"><path class="cls-1" d="M34.9,24.29a19.22,19.22,0,0,1-17.46,12A19.08,19.08,0,0,1,0,24.45a17.81,17.81,0,0,0,34.9-.16Z"/><path class="cls-1" d="M14.63,2.65a19.25,19.25,0,0,1,19.11,9.14,19.06,19.06,0,0,1-1.52,21A17.81,17.81,0,0,0,14.63,2.65Z"/><path class="cls-1" d="M6.17,31.2A19.25,19.25,0,0,1,4.53,10.08a19.09,19.09,0,0,1,19-9.19A17.81,17.81,0,0,0,6.17,31.2Z"/><path class="cls-1" d="M24.27,10.65a10.51,10.51,0,0,0-14.16,2.47L7.65,11A13.71,13.71,0,0,1,18.5,5.7a14.38,14.38,0,0,1,7.87,2.46L27.72,6.9l.54,5.5L23.08,12Z"/><path class="cls-1" d="M10,29.67a13.69,13.69,0,0,1-3.88-5A14.47,14.47,0,0,1,5.1,16.52l-1.71-.7L8.16,13,10,17.89l-1.75-.51a10.48,10.48,0,0,0,.84,6,10.61,10.61,0,0,0,3,3.85Z"/><path class="cls-1" d="M30.45,12.85A13.65,13.65,0,0,1,32,19a14.39,14.39,0,0,1-2.36,7.9L30.9,28.2l-5.49.62.29-5.19,1.4,1.17a10.49,10.49,0,0,0,.44-10.54Z"/><path class="cls-1" d="M22.21,30.91A4.68,4.68,0,0,1,18.7,33a5.13,5.13,0,0,1-4.06-1.33l1.69-.12a4.83,4.83,0,0,1-1.67-1.08,9.22,9.22,0,0,1-1-1.67l1.89-.09a7.69,7.69,0,0,1-1.5-2,13,13,0,0,1-.66-2.2,6.93,6.93,0,0,1,2.49.62,19.55,19.55,0,0,1,1.91,1.23l-.57-2.62a5.49,5.49,0,0,1,1.62,1.13,9.15,9.15,0,0,1,1,1.31l-.54-2.48a6.25,6.25,0,0,1,2.61,2.79,6.94,6.94,0,0,1,.53,3.84,7.7,7.7,0,0,1-2.71-.86,17.9,17.9,0,0,1-2.66-1.85,10,10,0,0,0,2.11,2.1A8.88,8.88,0,0,0,22.21,30.91Z"/><polygon class="cls-1" points="25.07 30.99 22.26 30.89 22.49 30.29 24.7 30.08 25.07 30.99"/></g></g></svg>